<?xml version="1.0" encoding="utf-8"?>
<!-- Svg Vector Icons : http://www.onlinewebfonts.com/icon -->
<!DOCTYPE svg PUBLIC "-//W3C//DTD SVG 1.1//EN" "http://www.w3.org/Graphics/SVG/1.1/DTD/svg11.dtd">
<svg version="1.1" xmlns="http://www.w3.org/2000/svg" xmlns:xlink="http://www.w3.org/1999/xlink" x="0px" y="0px" viewBox="0 0 1000 1000" enable-background="new 0 0 1000 1000" xml:space="preserve">
<metadata> Svg Vector Icons : http://www.onlinewebfonts.com/icon </metadata>
<g><g transform="translate(0.000000,512.000000) scale(0.100000,-0.100000)"><path d="M3930.6,4404.4v-623l-90.1-42.2c-118.8-55.6-253-189.8-312.5-312.5c-65.2-136.1-65.2-343.1,0-479.2c59.4-122.7,193.6-256.9,316.3-316.3c141.9-69,345-67.1,483.1,5.7c143.8,74.8,220.4,149.5,295.2,285.6c57.5,107.3,65.2,136.1,65.2,264.5c-1.9,113.1-11.5,164.9-47.9,239.6c-59.4,122.7-193.6,256.9-310.5,312.5l-92,42.2v623v623H4084h-153.4V4404.4z M4271.9,3444c84.4-63.3,122.7-155.3,113.1-281.8c-11.5-191.7-126.5-289.5-325.9-276c-191.7,11.5-289.5,126.5-276,325.9c7.7,126.5,49.8,197.5,149.5,249.2C4018.8,3507.2,4197.1,3497.6,4271.9,3444z"/><path d="M5770.9,4404.4v-623l-90.1-42.2c-118.9-55.6-253-189.8-312.5-312.5c-65.2-136.1-65.2-343.1,0-479.2c59.4-122.7,193.6-256.9,316.3-316.3c74.8-36.4,126.5-46,239.6-46s164.8,9.6,239.6,46c122.7,59.4,256.9,193.6,316.3,316.3c65.2,136.1,65.2,343.1,0,479.2c-59.4,122.7-193.6,256.9-310.5,312.5l-92,42.2v623v623h-153.3h-153.4V4404.4z M6112.1,3444c84.4-63.3,122.7-155.3,113.1-281.8c-11.5-191.7-126.5-289.5-325.9-276c-191.7,11.5-289.5,126.5-276,325.9c7.7,126.5,49.9,197.5,149.5,249.2C5859.1,3507.2,6037.4,3497.6,6112.1,3444z"/><path d="M1764.5,3769.8c-272.2-99.7-462-371.9-435.2-628.8c21.1-203.2,172.5-417.9,362.3-506.1l88.2-40.3l7.7-477.3l5.7-475.4l70.9-143.8c88.2-178.3,214.7-302.9,394.9-387.2l128.4-61.3l389.1-5.8l387.2-7.7v155.3v155.3h-347c-412.1,0-473.5,13.4-592.3,134.2c-124.6,122.7-134.2,172.5-134.2,676.7v435.1l95.8,47.9c138,69,214.7,145.7,289.5,281.8c57.5,107.3,65.2,136.1,65.2,264.5c-1.9,174.4-51.8,293.3-182.1,421.7C2195.8,3773.7,1954.3,3838.9,1764.5,3769.8z M2124.9,3444c84.4-63.3,122.7-155.3,113.1-281.8c-11.5-191.7-126.5-289.5-325.9-276c-191.7,11.5-289.5,126.5-276,325.9c7.7,126.5,49.8,197.5,149.5,249.2C1871.9,3507.2,2050.1,3497.6,2124.9,3444z"/><path d="M7898.7,3769.8c-272.2-99.7-462-371.9-435.1-628.8c21.1-205.1,174.5-417.9,364.2-506.1l90.1-42.2v-433.2c0-506.1-9.6-555.9-134.2-678.6c-118.8-120.8-180.2-134.2-592.3-134.2h-347v-155.3v-155.3l389.1,7.7l387.2,5.8l128.4,61.3c180.2,84.3,306.7,208.9,394.9,387.2L8215,1642l5.7,475.4l7.7,475.4l92,47.9c138,69,214.7,145.7,289.4,281.8c57.5,107.3,65.2,136.1,65.2,264.5c-1.9,174.4-51.8,293.3-182.1,421.7C8330,3773.7,8088.5,3838.9,7898.7,3769.8z M8259.1,3444c84.4-63.3,122.7-155.3,113.1-281.8c-11.5-191.7-126.5-289.5-325.9-276c-191.7,11.5-289.5,126.5-276,325.9c7.7,126.5,49.9,197.5,149.5,249.2C8006.1,3507.2,8184.3,3497.6,8259.1,3444z"/><path d="M4651.4,2244c-314.4-59.4-634.5-322-780.2-638.3c-72.8-161-93.9-299-93.9-623V700.8l-49.8-26.8c-80.5-42.2-208.9-197.4-233.9-281.8c-32.6-107.3-32.6-1970.6,0-2081.8c30.7-105.4,208.9-283.7,314.4-314.4c113.1-32.6,2279.2-32.6,2392.3,0c105.4,30.7,283.7,208.9,314.4,314.4c32.6,109.3,32.6,1986,0,2079.9c-32.6,97.8-111.2,199.4-201.3,260.7l-82.4,53.7v279.9c0,347-21.1,463.9-116.9,663.3c-143.8,299-456.3,542.5-772.5,598.1C5205.4,2270.8,4783.7,2270.8,4651.4,2244z M5506.4,1879.7c170.6-86.3,264.5-180.2,348.9-358.5c57.5-124.6,59.4-132.3,65.2-456.2l7.7-331.6h-924h-924l7.7,331.6c5.7,324,7.7,331.6,65.2,456.2c78.6,162.9,170.6,264.5,310.5,339.3c164.9,88.2,228.1,97.8,580.8,93.9l316.3-3.8L5506.4,1879.7z M6192.6,388.4c36.4-36.4,38.3-63.3,38.3-1035.1c0-971.9-1.9-998.7-38.3-1035.1c-38.3-38.3-63.3-38.3-1188.5-38.3c-1125.2,0-1150.2,0-1188.5,38.3c-36.4,36.4-38.3,63.3-38.3,1035.1c0,971.9,1.9,998.7,38.3,1035.1c38.3,38.3,63.3,38.3,1188.5,38.3C6129.4,426.7,6154.3,426.7,6192.6,388.4z"/><path d="M4898.7-60.2c-80.5-34.5-178.3-151.4-191.7-230c-17.3-88.2,15.3-184,86.3-251.1l57.5-55.6v-331.6v-331.6h153.4h153.4v331.6v331.6l57.5,55.6c115,111.2,120.8,264.5,13.4,387.2C5128.7-41,5015.6-8.4,4898.7-60.2z"/><path d="M537.7,702.7C265.5,603.1,75.7,330.9,102.5,74c21.1-205.1,170.6-414.1,368.1-509.9c141.9-69,345-67.1,483.1,5.7c143.8,74.8,220.4,149.5,291.4,281.8l61.3,115h623h621.1V120v153.4h-623h-623l-42.2,92c-55.6,116.9-191.7,251.1-312.5,308.6C825.2,733.4,652.7,744.9,537.7,702.7z M898.1,376.9c84.4-63.3,122.7-155.3,113.1-281.8C999.7-96.6,884.6-194.4,685.3-181c-191.7,11.5-289.5,126.5-276,325.9c7.7,126.5,49.8,197.5,149.5,249.2C645,440.1,823.3,430.5,898.1,376.9z"/><path d="M9125.5,702.7c-174.4-63.3-324-203.2-393-366.1l-26.8-63.3h-623h-624.9V120V-33.4h623h623l42.2-90.1c55.6-118.8,189.8-253,312.5-312.4c136.1-65.2,343.1-65.2,479.2,0c122.7,59.4,256.9,193.6,316.3,316.3c36.4,74.8,46,126.5,46,239.6c0,174.4-49.9,291.4-180.2,421.7C9556.9,706.6,9315.3,771.8,9125.5,702.7z M9485.9,376.9c84.4-63.3,122.7-155.3,113.1-281.8c-11.5-191.7-126.5-289.5-325.9-276c-191.7,11.5-289.5,126.5-276,325.9c7.7,126.5,49.9,197.5,149.5,249.2C9232.9,440.1,9411.2,430.5,9485.9,376.9z"/><path d="M2857.2,120V-33.4h153.4h153.4V120v153.4h-153.4h-153.4V120z"/><path d="M6844.4,120V-33.4h153.3h153.4V120v153.4h-153.4h-153.3V120z"/><path d="M2389.4-821.2c-216.6-51.8-429.4-232-534.8-454.3l-61.3-128.4l-5.7-475.4l-7.7-475.4l-88.2-40.3c-116.9-55.6-251.1-191.7-310.5-312.5c-36.4-74.8-46-126.5-46-239.6c0-174.4,49.8-291.4,180.2-421.7c128.4-130.3,247.3-180.2,421.7-182.1c128.4,0,157.2,7.7,264.5,65.2c136.1,74.7,210.9,151.4,285.6,295.2c72.8,138,74.8,341.2,5.7,483.1c-59.4,122.7-193.6,256.9-310.5,312.5l-92,42.2v433.2c0,506.1,9.6,555.9,134.2,678.6c118.9,120.8,180.2,134.2,592.3,134.2h347v153.4v153.4L2815-802C2621.4-804,2431.6-811.6,2389.4-821.2z M2124.9-2690.2c84.4-63.3,122.7-155.3,113.1-281.8c-11.5-191.7-126.5-289.5-325.9-276c-191.7,11.5-289.5,126.5-276,325.9c7.7,126.5,49.8,197.4,149.5,249.2C1871.9-2627,2050.1-2636.6,2124.9-2690.2z"/><path d="M6844.4-951.6v-155.3h347c412.1,0,473.5-13.4,592.3-134.2c124.6-122.7,134.2-172.5,134.2-678.6v-433.2l-90.1-42.2c-118.9-55.6-253-189.8-312.5-312.5c-36.4-74.8-46-126.5-46-239.6c0-174.4,49.9-291.4,180.2-421.7c128.4-130.3,247.3-180.2,421.7-182.1c128.4,0,157.2,7.7,264.5,65.2c136.1,74.7,210.9,151.4,285.6,295.2c72.8,138,74.8,341.2,5.8,483.1c-59.4,120.8-193.6,256.9-310.5,312.5l-88.2,40.3l-7.7,475.4L8215-1404l-61.3,128.4c-84.3,180.2-208.9,306.7-387.2,394.9l-143.8,70.9l-389.1,5.7l-389.1,7.7V-951.6z M8259.1-2690.2c84.4-63.3,122.7-155.3,113.1-281.8c-11.5-191.7-126.5-289.5-325.9-276c-191.7,11.5-289.5,126.5-276,325.9c7.7,126.5,49.9,197.4,149.5,249.2C8006.1-2627,8184.3-2636.6,8259.1-2690.2z"/><path d="M3911.5-2364.3c-272.2-99.7-462-371.9-435.2-628.8c21.1-205.1,174.4-417.9,364.2-506.1l90.1-42.2v-623v-623H4084h153.4v623v623l95.8,47.9c138,69,214.7,145.7,289.5,281.8c57.5,107.3,65.2,136.1,65.2,264.5c-1.9,174.4-51.8,293.3-182.1,421.7C4342.8-2360.5,4101.3-2295.3,3911.5-2364.3z M4271.9-2690.2c84.4-63.3,122.7-155.3,113.1-281.8c-11.5-191.7-126.5-289.5-325.9-276c-191.7,11.5-289.5,126.5-276,325.9c7.7,126.5,49.8,197.4,149.5,249.2C4018.8-2627,4197.1-2636.6,4271.9-2690.2z"/><path d="M5751.7-2364.3c-272.2-99.7-462-371.9-435.1-628.8c21.1-205.1,174.5-417.9,364.2-506.1l90.1-42.2v-623v-623h153.4h153.3v623v623l92,42.2c116.9,55.6,251.1,189.8,310.5,312.4c36.4,74.8,46,126.5,46,239.6c0,174.4-49.9,291.4-180.2,421.7C6183-2360.5,5941.5-2295.3,5751.7-2364.3z M6112.1-2690.2c84.4-63.3,122.7-155.3,113.1-281.8c-11.5-191.7-126.5-289.5-325.9-276c-191.7,11.5-289.5,126.5-276,325.9c7.7,126.5,49.9,197.4,149.5,249.2C5859.1-2627,6037.4-2636.6,6112.1-2690.2z"/></g></g>
</svg>