<?xml version="1.0" encoding="iso-8859-1"?>
<!-- Generator: Adobe Illustrator 19.0.0, SVG Export Plug-In . SVG Version: 6.00 Build 0)  -->
<svg version="1.1" id="Layer_1" xmlns="http://www.w3.org/2000/svg" xmlns:xlink="http://www.w3.org/1999/xlink" x="0px" y="0px"
	 viewBox="0 0 512.012 512.012" style="enable-background:new 0 0 512.012 512.012;" xml:space="preserve">
<g>
	<g>
		<g>
			
				<rect x="309.015" y="186.488" transform="matrix(-0.7071 -0.7071 0.7071 -0.7071 402.9254 557.171)" width="15.683" height="17.298"/>
			
				<rect x="272.316" y="223.171" transform="matrix(-0.7071 -0.7071 0.7071 -0.7071 314.3391 593.8412)" width="15.683" height="17.297"/>
			
				<rect x="235.629" y="259.866" transform="matrix(-0.7071 -0.7071 0.7071 -0.7071 225.7619 630.5436)" width="15.683" height="17.298"/>
			
				<rect x="198.931" y="296.558" transform="matrix(-0.7071 -0.7071 0.7071 -0.7071 137.1691 667.2314)" width="15.683" height="17.298"/>
			
				<rect x="162.243" y="333.255" transform="matrix(-0.7071 -0.7071 0.7071 -0.7071 48.5911 703.9341)" width="15.683" height="17.298"/>
			
				<rect x="125.538" y="369.944" transform="matrix(-0.7071 -0.7071 0.7071 -0.7071 -40.0122 740.6116)" width="15.683" height="17.298"/>
			
				<rect x="88.844" y="406.63" transform="matrix(-0.7071 -0.7071 0.7071 -0.7071 -128.5932 777.2924)" width="15.683" height="17.298"/>
			
				<rect x="474.164" y="-4.571" transform="matrix(0.7071 -0.7071 0.7071 0.7071 119.9483 349.6227)" width="15.683" height="69.185"/>
			
				<rect x="412.193" y="83.324" transform="matrix(-0.7071 -0.7071 0.7071 -0.7071 653.9585 453.2092)" width="17.298" height="15.683"/>
			<path d="M360.251,103.962c-7.058,7.06-18.545,7.06-25.604,0l-35.553,35.553l12.802,12.802L42.239,421.974
				c-3.687,3.687-9.685,3.687-13.374,0l-5.545-5.545L0,439.751l72.246,72.245l23.321-23.321l-5.545-5.546
				c-3.687-3.686-3.687-9.686,0-13.372l269.659-269.658l12.802,12.802l35.552-35.554c-3.42-3.419-5.303-7.965-5.303-12.801
				c0-4.836,1.883-9.383,5.318-12.818l84.806-85.259L445.3,18.914L360.251,103.962z M78.932,458.668
				c-7.867,7.867-9.42,19.693-4.659,29.123l-2.026,2.026l-50.066-50.066l2.027-2.027c9.43,4.758,21.255,3.206,29.122-4.659
				l269.657-269.659l25.603,25.604L78.932,458.668z M371.911,190.152l-50.066-50.067l13.373-13.373l50.067,50.067L371.911,190.152z
				 M396.945,140.654c-4.607,4.607-7.709,10.311-9.085,16.521l-33.058-33.057c6.064-1.342,11.83-4.358,16.538-9.066l73.958-73.958
				L470.705,66.5L396.945,140.654z"/>
		</g>
	</g>
</g>
<g>
</g>
<g>
</g>
<g>
</g>
<g>
</g>
<g>
</g>
<g>
</g>
<g>
</g>
<g>
</g>
<g>
</g>
<g>
</g>
<g>
</g>
<g>
</g>
<g>
</g>
<g>
</g>
<g>
</g>
</svg>
