<?xml version="1.0" encoding="utf-8"?>
<!-- Generator: Adobe Illustrator 23.0.1, SVG Export Plug-In . SVG Version: 6.00 Build 0)  -->
<svg version="1.1" id="Layer_2" xmlns="http://www.w3.org/2000/svg" xmlns:xlink="http://www.w3.org/1999/xlink" x="0px" y="0px"
	 width="100px" height="100px" viewBox="0 0 100 100" style="enable-background:new 0 0 100 100;" xml:space="preserve">
<style type="text/css">
	.st0{display:none;}
	.st1{display:inline;fill:#60B2B8;}
	.st2{display:inline;fill:#F0F1F1;}
	.st3{display:inline;fill:#B6B6B6;}
	.st4{display:inline;fill:#6DBE46;}
	.st5{fill:#5CADB3;}
</style>
<g id="Layer_1">
	<g class="st0">
		<path class="st1" d="M-206.87543,15.4845c0.14435-125.07838,97.06345-212.00278,201.79718-218.72131
			c142.86041-9.16431,226.88965,95.61182,237.86707,191.5806c7.17047,62.68695-7.90479,119.68781-47.46051,168.18286
			c-37.47314,45.94186-87.1394,72.7706-146.90057,79.20383c-65.57196,7.05878-124.1344-10.96985-172.89008-54.35437
			C-183.37827,137.84903-206.89792,81.29996-206.87543,15.4845z M133.33606-61.56339
			c-0.12903-24.05334-13.76807-38.13991-31.69537-41.1489c-25.12378-4.2169-39.36322,9.97585-54.16211,25.59781
			C36.41864-65.43942,24.63116-54.45615,13.2511-43.08136C-10.28186-19.55927-33.79816,3.97983-57.24344,27.58926
			c-12.04587,12.13022-26.03894,23.02805-35.30078,37.03027c-9.83319,14.866-8.48105,34.39099-13.43555,51.53021
			c-0.81213,2.80936-2.51221,5.90302-1.94785,8.45535c1.13489,5.13242-10.23749,16.19763,4.82635,14.7565
			c18.87881-1.80603,37.50858-6.31943,56.19888-9.90884c3.95123-0.75882,8.67517-1.53802,11.37619-4.07944
			c13.35077-12.56201,26.23889-25.62335,39.10797-38.68805C24.17108,65.78293,44.57617,44.69919,65.1366,23.76816
			c15.32062-15.5968,30.65637-31.18164,46.18762-46.56763C122.85541-34.22275,136.47876-44.36374,133.33606-61.56339z"/>
		<path class="st2" d="M133.33606-61.56339c3.1427,17.19965-10.48065,27.34064-22.01184,38.76392
			C95.79297-7.41348,80.45721,8.17136,65.1366,23.76816C44.57617,44.69919,24.17108,65.78293,3.58179,86.68527
			c-12.86908,13.0647-25.7572,26.12604-39.10797,38.68805c-2.70102,2.54141-7.42496,3.32062-11.37619,4.07944
			c-18.69031,3.58942-37.32007,8.10281-56.19888,9.90884c-15.06384,1.44113-3.69147-9.62408-4.82635-14.7565
			c-0.56436-2.55234,1.13571-5.646,1.94785-8.45535c4.9545-17.13922,3.60236-36.66422,13.43555-51.53021
			c9.26184-14.00223,23.25491-24.90005,35.30078-37.03027C-33.79816,3.97983-10.28186-19.55927,13.2511-43.08136
			c11.38007-11.37479,23.16754-22.35806,34.22748-34.03311c14.79889-15.62196,29.03833-29.81471,54.16211-25.59781
			C119.56799-99.70329,133.20703-85.61673,133.33606-61.56339z M-34.81445,94.98553
			c7.89069-7.55258,15.26178-14.36896,22.36786-21.4512C16.25269,44.93124,45.36676,16.7092,72.9856-12.90515
			c4.16699-4.46805,18.30511-7.10419,10.55438-18.52911c-4.03925-5.95407-10.08331-10.7276-15.80878-15.29935
			c-4.29724-3.4313-8.10468-13.06052-14.95837-6.35992C14.65369-15.82593-22.88562,22.03583-60.4407,59.87555
			c-1.70679,1.71976-7.06689,5.04697-1.77197,7.73514c7.53754,3.82669,13.05832,9.50394,18.33649,15.65433
			C-40.80807,86.84012-38.09268,90.71786-34.81445,94.98553z M116.79803-61.77634
			c-0.02655-10.52657-14.7774-25.86436-23.25446-24.71631c-9.30151,1.25972-16.54327,7.14111-21.25873,15.28354
			c-1.10614,1.91014,26.87244,30.0029,28.81653,28.98444C109.75476-46.75766,113.80841-54.94739,116.79803-61.77634z
			 M-77.68716,114.51364c7.57785-2.27454,17.14401-2.89175,23.28973-7.79556c3.9924-3.18564-4.01923-9.56552-7.16492-13.32797
			c-3.5723-4.27274-8.44019-10.31488-15.20996-9.09485c-5.97098,1.07608-2.25287,7.29776-3.5025,11.03632
			c-0.66312,1.98389-2.04709,3.98108-1.94931,5.91382C-82.00003,105.6752-88.66934,112.41403-77.68716,114.51364z"/>
		<path class="st1" d="M-34.81445,94.98553c-3.27823-4.26767-5.99362-8.14542-9.06174-11.72052
			c-5.27817-6.15039-10.79895-11.82764-18.33649-15.65433c-5.29492-2.68817,0.06519-6.01538,1.77197-7.73514
			C-22.88562,22.03583,14.65369-15.82593,52.77283-53.09354c6.8537-6.70059,10.66113,2.92862,14.95837,6.35992
			c5.72546,4.57175,11.76953,9.34528,15.80878,15.29935c7.75073,11.42493-6.38739,14.06107-10.55438,18.52911
			C45.36676,16.7092,16.25269,44.93124-12.44659,73.53433C-19.55267,80.61658-26.92377,87.43295-34.81445,94.98553z"/>
		<path class="st1" d="M116.79803-61.77634c-2.98962,6.82895-7.04327,15.01868-15.69666,19.55167
			c-1.94409,1.01846-29.92267-27.0743-28.81653-28.98444c4.71545-8.14243,11.95721-14.02382,21.25873-15.28354
			C102.02063-87.6407,116.77148-72.3029,116.79803-61.77634z"/>
		<path class="st1" d="M-77.68716,114.51364c-10.98218-2.09961-4.31287-8.83844-4.53696-13.26825
			c-0.09778-1.93274,1.28619-3.92993,1.94931-5.91382c1.24963-3.73856-2.46848-9.96024,3.5025-11.03632
			c6.76978-1.22003,11.63766,4.82211,15.20996,9.09485c3.14569,3.76245,11.15732,10.14233,7.16492,13.32797
			C-60.54315,111.62189-70.10931,112.23911-77.68716,114.51364z"/>
	</g>
	<g class="st0">
		<path class="st3" d="M66.17795,79.00711c-6.10071,0.04611-12.20136,0.10731-18.30216,0.1337
			c-5.18166,0.02239-10.36444-0.04974-15.54462,0.04081c-1.38509,0.02421-2.51904-0.35604-3.49454-1.19965
			c-5.63587-4.87409-9.78422-10.72191-11.84563-17.97763c-2.93782-10.34056-1.10851-19.89209,4.98028-28.56436
			c5.58639-7.95671,13.36924-12.55,23.02097-14.06054c14.4679-2.26427,28.87857,5.34879,35.4148,18.05937
			c5.11156,9.94011,5.26315,20.20515,0.62929,30.45897c-0.14571,0.32246-0.2616,0.65839-0.39106,0.98866
			c-2.39024-2.59283-5.41404-3.17786-8.68272-2.46632C66.35405,65.64094,62.31852,72.33072,66.17795,79.00711z"/>
		<path class="st4" d="M66.17795,79.00711c-3.85943-6.67639,0.1761-13.36617,5.78461-14.58701
			c3.26868-0.71154,6.29248-0.12652,8.68272,2.46632c2.81185,3.40316,3.77449,7.18167,1.69337,11.2243
			c-2.82513,5.48795-10.07369,6.54589-14.60501,2.29211C67.22582,79.92613,66.69701,79.47181,66.17795,79.00711z"/>
	</g>
	<g>
		<path class="st5" d="M50.84694,24.38502c14.57122-0.11899,26.75832,11.98831,26.75888,26.58366
			C77.60638,65.5872,65.4422,77.7255,50.90407,77.61362C36.43753,77.50227,24.5965,65.73888,24.39272,51.27606
			C24.18768,36.7241,36.20873,24.50456,50.84694,24.38502z M50.08278,72.25726c7.12778-0.01669,12.87146-2.52608,16.55552-6.53937
			c2.08082-2.26678,1.90493-3.80883-0.70495-5.51692c-7.68991-5.03283-22.25317-5.00077-29.93198,0.05326
			c-2.67752,1.76228-2.72601,3.43643-0.56153,5.49923C39.80756,69.916,44.8232,72.53712,50.08278,72.25726z M50.86606,31.70573
			c-4.62028,0.07477-8.6615,4.03407-8.71121,8.5346c-0.05188,4.69808,4.19275,8.85587,8.97533,8.79168
			c4.76736-0.06398,8.93247-4.39746,8.70407-9.0559C59.61283,35.45985,55.46132,31.63137,50.86606,31.70573z M69.57076,51.8544
			c-0.76038-3.45557-2.35709-5.70861-5.94995-5.98399c-1.77694-0.1362-1.86027,0.86913-1.70198,2.16719
			c0.43925,3.60207,2.92323,5.01115,6.10093,5.50269C69.32714,53.74252,69.68556,52.76203,69.57076,51.8544z"/>
	</g>
</g>
<g id="Layer_3">
</g>
</svg>
