<?xml version="1.0" encoding="utf-8"?>
<!-- Generator: Adobe Illustrator 23.0.1, SVG Export Plug-In . SVG Version: 6.00 Build 0)  -->
<svg version="1.1" id="Layer_2" xmlns="http://www.w3.org/2000/svg" xmlns:xlink="http://www.w3.org/1999/xlink" x="0px" y="0px"
	 width="100px" height="100px" viewBox="0 0 100 100" style="enable-background:new 0 0 100 100;" xml:space="preserve">
<style type="text/css">
	.st0{display:none;}
	.st1{display:inline;fill:#60B2B8;}
	.st2{display:inline;fill:#F0F1F1;}
	.st3{display:inline;fill:#B6B6B6;}
	.st4{display:inline;fill:#6DBE46;}
	.st5{fill:#FFFFFF;}
	.st6{fill:#46484B;}
	.st7{fill:#E3E3E3;}
	.st8{fill:#E5E4E4;}
	.st9{fill:#E9E8E7;}
	.st10{fill:#E7E6E6;}
	.st11{fill:#77787A;}
	.st12{fill:#EBE9E9;}
</style>
<g id="Layer_1">
	<g class="st0">
		<path class="st1" d="M-206.87543,15.4845c0.14435-125.07838,97.06345-212.00278,201.79718-218.72131
			c142.86041-9.16431,226.88965,95.61182,237.86707,191.5806c7.17047,62.68695-7.90479,119.68781-47.46051,168.18286
			c-37.47314,45.94186-87.1394,72.7706-146.90057,79.20383c-65.57196,7.05878-124.1344-10.96985-172.89008-54.35437
			C-183.37827,137.84903-206.89792,81.29996-206.87543,15.4845z M133.33606-61.56339
			c-0.12903-24.05334-13.76807-38.13991-31.69537-41.1489c-25.12378-4.2169-39.36322,9.97585-54.16211,25.59781
			C36.41864-65.43942,24.63116-54.45615,13.2511-43.08136C-10.28186-19.55927-33.79816,3.97983-57.24344,27.58926
			c-12.04587,12.13022-26.03894,23.02805-35.30078,37.03027c-9.83319,14.866-8.48105,34.39099-13.43555,51.53021
			c-0.81213,2.80936-2.51221,5.90302-1.94785,8.45535c1.13489,5.13242-10.23749,16.19763,4.82635,14.7565
			c18.87881-1.80603,37.50858-6.31943,56.19888-9.90884c3.95123-0.75882,8.67517-1.53802,11.37619-4.07944
			c13.35077-12.56201,26.23889-25.62335,39.10797-38.68805C24.17108,65.78293,44.57617,44.69919,65.1366,23.76816
			c15.32062-15.5968,30.65637-31.18164,46.18762-46.56763C122.85541-34.22275,136.47876-44.36374,133.33606-61.56339z"/>
		<path class="st2" d="M133.33606-61.56339c3.1427,17.19965-10.48065,27.34064-22.01184,38.76392
			C95.79297-7.41348,80.45721,8.17136,65.1366,23.76816C44.57617,44.69919,24.17108,65.78293,3.58179,86.68527
			c-12.86908,13.0647-25.7572,26.12604-39.10797,38.68805c-2.70102,2.54141-7.42496,3.32062-11.37619,4.07944
			c-18.69031,3.58942-37.32007,8.10281-56.19888,9.90884c-15.06384,1.44113-3.69147-9.62408-4.82635-14.7565
			c-0.56436-2.55234,1.13571-5.646,1.94785-8.45535c4.9545-17.13922,3.60236-36.66422,13.43555-51.53021
			c9.26184-14.00223,23.25491-24.90005,35.30078-37.03027C-33.79816,3.97983-10.28186-19.55927,13.2511-43.08136
			c11.38007-11.37479,23.16754-22.35806,34.22748-34.03311c14.79889-15.62196,29.03833-29.81471,54.16211-25.59781
			C119.56799-99.70329,133.20703-85.61673,133.33606-61.56339z M-34.81445,94.98553
			c7.89069-7.55258,15.26178-14.36896,22.36786-21.4512C16.25269,44.93124,45.36676,16.7092,72.9856-12.90515
			c4.16699-4.46805,18.30511-7.10419,10.55438-18.52911c-4.03925-5.95407-10.08331-10.7276-15.80878-15.29935
			c-4.29724-3.4313-8.10468-13.06052-14.95837-6.35992C14.65369-15.82593-22.88562,22.03583-60.4407,59.87555
			c-1.70679,1.71976-7.06689,5.04697-1.77197,7.73514c7.53754,3.82669,13.05832,9.50394,18.33649,15.65433
			C-40.80807,86.84012-38.09268,90.71786-34.81445,94.98553z M116.79803-61.77634
			c-0.02655-10.52657-14.7774-25.86436-23.25446-24.71631c-9.30151,1.25972-16.54327,7.14111-21.25873,15.28354
			c-1.10614,1.91014,26.87244,30.0029,28.81653,28.98444C109.75476-46.75766,113.80841-54.94739,116.79803-61.77634z
			 M-77.68716,114.51364c7.57785-2.27454,17.14401-2.89175,23.28973-7.79556c3.9924-3.18564-4.01923-9.56552-7.16492-13.32797
			c-3.5723-4.27274-8.44019-10.31488-15.20996-9.09485c-5.97098,1.07608-2.25287,7.29776-3.5025,11.03632
			c-0.66312,1.98389-2.04709,3.98108-1.94931,5.91382C-82.00003,105.6752-88.66934,112.41403-77.68716,114.51364z"/>
		<path class="st1" d="M-34.81445,94.98553c-3.27823-4.26767-5.99362-8.14542-9.06174-11.72052
			c-5.27817-6.15039-10.79895-11.82764-18.33649-15.65433c-5.29492-2.68817,0.06519-6.01538,1.77197-7.73514
			C-22.88562,22.03583,14.65369-15.82593,52.77283-53.09354c6.8537-6.70059,10.66113,2.92862,14.95837,6.35992
			c5.72546,4.57175,11.76953,9.34528,15.80878,15.29935c7.75073,11.42493-6.38739,14.06107-10.55438,18.52911
			C45.36676,16.7092,16.25269,44.93124-12.44659,73.53433C-19.55267,80.61658-26.92377,87.43295-34.81445,94.98553z"/>
		<path class="st1" d="M116.79803-61.77634c-2.98962,6.82895-7.04327,15.01868-15.69666,19.55167
			c-1.94409,1.01846-29.92267-27.0743-28.81653-28.98444c4.71545-8.14243,11.95721-14.02382,21.25873-15.28354
			C102.02063-87.6407,116.77148-72.3029,116.79803-61.77634z"/>
		<path class="st1" d="M-77.68716,114.51364c-10.98218-2.09961-4.31287-8.83844-4.53696-13.26825
			c-0.09778-1.93274,1.28619-3.92993,1.94931-5.91382c1.24963-3.73856-2.46848-9.96024,3.5025-11.03632
			c6.76978-1.22003,11.63766,4.82211,15.20996,9.09485c3.14569,3.76245,11.15732,10.14233,7.16492,13.32797
			C-60.54315,111.62189-70.10931,112.23911-77.68716,114.51364z"/>
	</g>
	<g class="st0">
		<path class="st3" d="M66.17795,79.00711c-6.10071,0.04611-12.20136,0.10731-18.30216,0.1337
			c-5.18166,0.02239-10.36444-0.04974-15.54462,0.04081c-1.38509,0.02421-2.51904-0.35604-3.49454-1.19965
			c-5.63587-4.87409-9.78422-10.72191-11.84563-17.97763c-2.93782-10.34056-1.10851-19.89209,4.98028-28.56436
			c5.58639-7.95671,13.36924-12.55,23.02097-14.06054c14.4679-2.26427,28.87857,5.34879,35.4148,18.05937
			c5.11156,9.94011,5.26315,20.20515,0.62929,30.45897c-0.14571,0.32246-0.2616,0.65839-0.39106,0.98866
			c-2.39024-2.59283-5.41404-3.17786-8.68272-2.46632C66.35405,65.64094,62.31852,72.33072,66.17795,79.00711z"/>
		<path class="st4" d="M66.17795,79.00711c-3.85943-6.67639,0.1761-13.36617,5.78461-14.58701
			c3.26868-0.71154,6.29248-0.12652,8.68272,2.46632c2.81185,3.40316,3.77449,7.18167,1.69337,11.2243
			c-2.82513,5.48795-10.07369,6.54589-14.60501,2.29211C67.22582,79.92613,66.69701,79.47181,66.17795,79.00711z"/>
	</g>
	<path class="st5" d="M38.40425,35.34043c0,0-6.12766,13.27659,0,22.7234S53.5,79.09158,53.5,79.09158
		S65.32314,71.06383,69.99136,55.5s-0.87779-21.77593-5.54455-23.98936S52.70213,22.31915,38.40425,35.34043z"/>
	<g>
		<path class="st6" d="M47,48c-0.37211-3.74813,2.25667-5.78315,4.53077-7.98611c1.35651,0,2.67686,0,3.23474,0
			c4.7581,1.52143,5.62487,4.67532,5.26375,7.81329c-1.61941,4.53075-4.62798,5.68298-8.69333,5.0327
			C50.41796,51.59952,48.68866,50.75663,48,49C48.02542,48.30791,47.69209,47.97458,47,48z"/>
		<path class="st7" d="M71.5,50c-0.59719-2.33333-0.59719-4.66667,0-7C72.09719,45.33333,72.09719,47.66667,71.5,50z"/>
		<path class="st8" d="M56.83077,28.83489c-1.88371,0-3.76742,0-5.65113,0C53.0006,27.62876,54.92864,28.25667,56.83077,28.83489z"
			/>
		<path class="st9" d="M35.8315,44.18648c0,1.5507,0,3.10139,0,5.77699C34.54807,47.34918,35.30781,45.73061,35.8315,44.18648z"/>
		<path class="st8" d="M55.04586,78.5C54,79.28877,53,79.28877,51.95414,78.5C53,77.71123,54,77.71123,55.04586,78.5z"/>
		<path class="st10" d="M59.78006,29.2972c-0.52403,0.94299-1.074,0.73752-1.68147,0.46955
			C58.48701,28.3191,59.29512,29.52484,59.78006,29.2972z"/>
		<path class="st9" d="M36.45601,39.96385c0.82019,0.73867,0.54128,1.29573,0.32872,1.95945
			C35.55527,41.49741,35.86098,40.85696,36.45601,39.96385z"/>
		<path class="st9" d="M36.5,53.00996c-0.7263-0.67662-0.7263-1.34329,0-2.01991C37.2263,51.66667,37.2263,52.33333,36.5,53.00996z"
			/>
		<path class="st11" d="M47,48c0.69209-0.02542,1.02542,0.30791,1,1C47.30791,49.02542,46.97458,48.69209,47,48z"/>
		<path class="st12" d="M69.00864,55.5c0.32469-0.46656,0.65802-0.46656,0.98271,0
			C69.66666,55.96656,69.33334,55.96656,69.00864,55.5z"/>
	</g>
</g>
<g id="Layer_3">
</g>
</svg>
