<?xml version="1.0" encoding="utf-8"?>
<!-- Svg Vector Icons : http://www.onlinewebfonts.com/icon -->
<!DOCTYPE svg PUBLIC "-//W3C//DTD SVG 1.1//EN" "http://www.w3.org/Graphics/SVG/1.1/DTD/svg11.dtd">
<svg version="1.1" xmlns="http://www.w3.org/2000/svg" xmlns:xlink="http://www.w3.org/1999/xlink" x="0px" y="0px" viewBox="0 0 1000 1000" enable-background="new 0 0 1000 1000" xml:space="preserve">
<metadata> Svg Vector Icons : http://www.onlinewebfonts.com/icon </metadata>
<g><g><g><path d="M698.9,256.3C698.9,120.5,609.7,10,500,10c-109.7,0-198.9,110.5-198.9,246.3c0,125.7,76.4,229.6,174.7,244.4l-0.2,1.4c-10,4.9-18.9,11.5-25.7,21c-10.3,14.4-9.1,33.7-4.9,49.9c10.4,40.3,40.1,72.1,54.7,110.6c19.7,52.1-3.7,103.6-22.4,152c-19.5,50.5-28.9,101-1.3,150.5c5,8.9,18.6,0.9,13.7-8c-26.9-48.1-13.5-96.3,5.3-144.5c17.4-44.7,35.4-89.7,24.7-138.4c-8.2-37.1-33.9-68.3-50.2-102.1c-7.3-15.2-14.5-33.5-10.9-50.7c1.8-8.6,6.8-15.1,13.3-20.1l-4.7,25.8c-0.6,3.1,0.3,6.3,2.3,8.6c2,2.4,5,3.8,8.1,3.8h52.7c3,0,5.9-1.3,7.9-3.6c2-2.3,2.9-5.4,2.5-8.4L534,499C627.5,479,698.9,377.8,698.9,256.3z M490.2,539.5l5.2-28.3c4.6-1.4,9.1-2.6,13.3-3.5c2.3-0.5,3.8-1.8,4.7-3.3l4.8,35.3L490.2,539.5L490.2,539.5z M500,481.6c-98.1,0-177.8-101-177.8-225.2c0-124.2,79.8-225.3,177.8-225.3s177.8,101,177.8,225.3C677.8,380.5,598.1,481.6,500,481.6z"/><path d="M478.8,78.6C401.9,69.9,373.7,179.3,372.6,184c-1.4,5.6,2,11.4,7.6,12.8c0.9,0.2,1.7,0.3,2.6,0.3c4.7,0,9-3.2,10.2-8c0.2-1,25-96.4,83.4-89.6c5.8,0.6,11-3.5,11.7-9.3C488.7,84.5,484.6,79.2,478.8,78.6z"/></g></g><g></g><g></g><g></g><g></g><g></g><g></g><g></g><g></g><g></g><g></g><g></g><g></g><g></g><g></g><g></g></g>
</svg>