<?xml version="1.0" encoding="UTF-8" standalone="no"?>
<!-- Created with Inkscape (http://www.inkscape.org/) -->
<svg xmlns:rdf="http://www.w3.org/1999/02/22-rdf-syntax-ns#" xmlns="http://www.w3.org/2000/svg" xmlns:cc="http://web.resource.org/cc/" xmlns:dc="http://purl.org/dc/elements/1.1/" xmlns:svg="http://www.w3.org/2000/svg" xmlns:inkscape="http://www.inkscape.org/namespaces/inkscape" xmlns:sodipodi="http://sodipodi.sourceforge.net/DTD/sodipodi-0.dtd" xmlns:ns1="http://sozi.baierouge.fr" xmlns:xlink="http://www.w3.org/1999/xlink" id="svg8839" viewBox="0 0 1600 1200" version="1.0" inkscape:version="0.91 r13725">
  <g id="layer1">
    <rect id="rect8727" style="fill:#559dcc" height="1200" width="1600" y="0" x="0"/>
    <path id="path8729" style="fill:#ffffff" d="m-30.661-192.68c-22.558 0-41.252 16.67-44.431 38.35-0.795-0.07-1.595-0.12-2.408-0.12-15.521 0-28.16 13.18-28.51 29.55-2.59-1.45-5.57-2.28-8.75-2.28-9.93 0-18.01 8.07-18.01 18.01 0 9.931 10.17 20.824 20.1 20.824 84.209 0.271 140.16 1.112 224.07 0.564 11.3 0 21.63-5.357 21.63-16.658 0-11.29-9.17-20.46-20.47-20.46-2.94 0-5.74 0.62-8.27 1.74-4.587-7.59-12.91-12.67-22.423-12.67-3.746 0-7.315 0.79-10.538 2.21-1.796-11.52-11.768-20.36-23.795-20.36-9.495 0-17.71 5.5-21.633 13.49-3.508-2.08-7.517-3.41-11.794-3.77 0.09-1.16 0.142-2.32 0.142-3.51 0-24.79-20.122-44.91-44.91-44.91z"/>
    <path id="path8731" style="fill:#ffffff" d="m25.676-39.053c-37.376 0-68.348 27.613-73.615 63.533-1.318-0.117-2.644-0.193-3.99-0.193-25.716 0-46.659 21.836-47.232 48.948-4.299-2.4-9.229-3.775-14.499-3.775-16.46 0-29.84 13.375-29.84 29.837 0 16.463 16.85 34.513 33.31 34.513 139.51 0.45 232.21 1.84 371.24 0.93 18.71 0 35.83-8.87 35.83-27.59 0-18.721-15.19-33.915-33.91-33.915-4.88 0-9.51 1.037-13.7 2.896-7.6-12.582-21.39-20.999-37.15-20.999-6.21 0-12.12 1.317-17.46 3.668-2.98-19.098-19.5-33.74-39.43-33.74-15.73 0-29.34 9.114-35.84 22.35-5.81-3.44-12.46-5.647-19.542-6.242 0.15-1.923 0.232-3.851 0.232-5.813 0-41.069-33.335-74.408-74.404-74.408z"/>
    <path id="path8733" style="fill:#ffffff" d="m116.86 174.81c-38.763 0-70.883 28.64-76.345 65.89-1.367-0.12-2.742-0.2-4.138-0.2-26.67 0-48.389 22.65-48.983 50.77-4.456-2.49-9.575-3.92-15.038-3.92-17.071 0-30.942 13.87-30.942 30.94s17.467 35.79 34.539 35.79c144.69 0.47 240.82 1.91 385.01 0.97 19.41 0 37.16-9.2 37.16-28.62 0-19.41-15.75-35.16-35.17-35.16-5.06 0-9.86 1.07-14.21 3-7.88-13.05-22.18-21.78-38.53-21.78-6.43 0-12.57 1.37-18.11 3.8-3.08-19.8-20.22-34.99-40.88-34.99-16.32 0-30.43 9.46-37.17 23.18-6.03-3.57-12.92-5.85-20.27-6.47 0.16-2 0.25-3.99 0.25-6.03 0-42.59-34.58-77.17-77.17-77.17z"/>
    <path id="path8735" style="fill:#ffffff" d="m305.93 361.56c-33.2 0-60.7 24.53-65.38 56.43-1.17-0.11-2.35-0.17-3.54-0.17-22.84 0-41.44 19.39-41.95 43.47-3.81-2.14-8.2-3.36-12.88-3.36-14.61 0-26.49 11.88-26.49 26.5s14.96 30.65 29.57 30.65c123.9 0.4 206.23 1.63 329.7 0.83 16.62 0 31.82-7.88 31.82-24.51 0-16.62-13.49-30.11-30.11-30.11-4.34 0-8.45 0.92-12.18 2.57-6.74-11.18-18.99-18.65-32.99-18.65-5.51 0-10.76 1.17-15.5 3.26-2.65-16.96-17.32-29.97-35.02-29.97-13.97 0-26.06 8.1-31.83 19.85-5.16-3.05-11.06-5.01-17.35-5.54 0.13-1.71 0.21-3.42 0.21-5.16 0-36.48-29.61-66.09-66.08-66.09z"/>
    <path id="path8737" style="fill:#ffffff" d="m-0.16726 544.21c-30.87 0-56.45 22.8-60.801 52.47-1.088-0.09-2.183-0.16-3.295-0.16-21.239 0-38.537 18.04-39.007 40.43-3.55-1.98-7.63-3.12-11.98-3.12-13.59 0-24.64 11.05-24.64 24.64 0 13.6 13.91 28.51 27.51 28.51 115.22 0.37 191.78 1.52 306.61 0.77 15.46 0 29.6-7.33 29.6-22.79s-12.55-28.01-28.01-28.01c-4.03 0-7.85 0.86-11.32 2.39-6.27-10.39-17.66-17.34-30.68-17.34-5.13 0-10.01 1.09-14.42 3.03-2.46-15.78-16.11-27.87-32.56-27.87-12.997 0-24.239 7.53-29.607 18.46-4.801-2.84-10.286-4.66-16.139-5.15 0.123-1.59 0.195-3.19 0.195-4.81 0-33.92-27.536-61.45-61.456-61.45z"/>
    <path id="path8739" style="fill:#ffffff" d="m356.74 800.45c-21.65 0-39.59 15.99-42.64 36.8-0.76-0.07-1.53-0.11-2.31-0.11-14.9 0-27.03 12.65-27.36 28.35-2.49-1.39-5.35-2.19-8.4-2.19-9.53 0-17.28 7.75-17.28 17.29 0 9.53 9.75 19.99 19.29 19.99 80.81 0.26 134.51 1.07 215.04 0.54 10.85 0 20.76-5.14 20.76-15.98 0-10.85-8.8-19.65-19.64-19.65-2.83 0-5.51 0.6-7.94 1.68-4.4-7.29-12.39-12.16-21.52-12.16-3.59 0-7.02 0.76-10.11 2.12-1.73-11.06-11.3-19.54-22.84-19.54-9.11 0-17 5.28-20.76 12.94-3.37-1.99-7.22-3.27-11.32-3.61 0.09-1.12 0.14-2.23 0.14-3.37 0-23.79-19.32-43.1-43.11-43.1z"/>
    <path id="path8741" style="fill:#ffffff" d="m213.76 907.49c-9.66 0-17.66 7.14-19.02 16.42-0.34-0.03-0.68-0.05-1.03-0.05-6.65 0-12.06 5.64-12.21 12.65-1.11-0.62-2.38-0.98-3.74-0.98-4.26 0-7.71 3.46-7.71 7.71 0 4.26 4.35 8.92 8.6 8.92 36.05 0.12 60.01 0.48 95.93 0.24 4.84 0 9.26-2.29 9.26-7.13 0-4.83-3.92-8.76-8.76-8.76-1.26 0-2.46 0.27-3.54 0.75-1.97-3.25-5.53-5.43-9.6-5.43-1.61 0-3.13 0.34-4.51 0.95-0.77-4.94-5.04-8.72-10.19-8.72-4.07 0-7.58 2.36-9.26 5.78-1.5-0.89-3.22-1.46-5.05-1.62 0.04-0.49 0.06-0.99 0.06-1.5 0-10.61-8.62-19.23-19.23-19.23z"/>
    <path id="path8743" style="fill:#ffffff" d="m68.121 982.15c-35.492 0-64.903 26.25-69.906 60.35-1.2509-0.1-2.51-0.2-3.7882-0.2-24.421 0-44.308 20.7-44.852 46.5-4.08-2.3-8.767-3.6-13.77-3.6-15.632 0-28.333 12.7-28.333 28.3 0 15.7 15.995 32.8 31.627 32.8 132.48 0.4 220.51 1.8 352.53 0.9 17.78 0 34.03-8.4 34.03-26.2s-14.42-32.2-32.2-32.2c-4.63 0-9.03 1-13.01 2.7-7.22-11.9-20.32-19.9-35.28-19.9-5.9 0-11.51 1.2-16.58 3.5-2.83-18.2-18.52-32.1-37.44-32.1-14.94 0-27.87 8.7-34.04 21.3-5.52-3.3-11.82-5.4-18.55-6 0.14-1.8 0.22-3.6 0.22-5.5 0-39-31.66-70.65-70.659-70.65z"/>
    <path id="path8745" style="fill:#ffffff" d="m91.439 1206.5c-38.979 0-71.28 28.8-76.773 66.2-1.374-0.1-2.757-0.2-4.161-0.2-26.819 0-48.661 22.8-49.258 51.1-4.481-2.5-9.629-4-15.122-4-17.168 0-31.117 14-31.117 31.1 0 17.2 17.566 36 34.733 36 145.5 0.5 242.17 2 387.17 1 19.52 0 37.37-9.2 37.37-28.8 0-19.5-15.84-35.3-35.36-35.3-5.09 0-9.92 1-14.3 3-7.92-13.1-22.31-21.9-38.74-21.9-6.47 0-12.64 1.4-18.21 3.8-3.1-19.9-20.33-35.2-41.12-35.2-16.4 0-30.6 9.5-37.38 23.3-6.06-3.6-12.99-5.9-20.38-6.5 0.16-2 0.25-4 0.25-6 0-42.9-34.77-77.6-77.601-77.6z"/>
    <path id="path8747" style="fill:#ffffff" d="m399.7-445.31c47.78 0 87.37 35.3 94.1 81.22 1.69-0.15 3.38-0.25 5.1-0.25 32.88 0 59.65 27.92 60.38 62.57 5.49-3.07 11.8-4.82 18.53-4.82 21.05 0 38.14 17.09 38.14 38.14 0 21.04-21.53 44.11-42.57 44.11-178.34 0.58-296.83 2.36-474.55 1.2-23.929 0-45.814-11.35-45.814-35.28s19.422-43.35 43.349-43.35c6.235 0 12.155 1.33 17.525 3.7 9.71-16.08 27.34-26.84 47.49-26.84 7.93 0 15.49 1.68 22.31 4.69 3.81-24.41 24.93-43.13 50.4-43.13 20.11 0 37.51 11.65 45.82 28.57 7.43-4.4 15.92-7.22 24.98-7.98-0.19-2.46-0.31-4.92-0.31-7.43 0-52.5 42.62-95.12 95.12-95.12z"/>
    <path id="path8749" style="fill:#ffffff" d="m585.43-216.56c38.91 0 71.15 28.75 76.63 66.14 1.37-0.12 2.76-0.2 4.16-0.2 26.77 0 48.57 22.73 49.17 50.958 4.47-2.498 9.61-3.928 15.09-3.928 17.14 0 31.06 13.922 31.06 31.059s-17.53 35.927-34.67 35.927c-145.24 0.468-241.74 1.917-386.48 0.973-19.48 0-37.31-9.241-37.31-28.727s15.82-35.304 35.31-35.304c5.08 0 9.9 1.08 14.27 3.015 7.91-13.103 22.26-21.863 38.67-21.863 6.46 0 12.62 1.37 18.18 3.82 3.1-19.88 20.3-35.13 41.04-35.13 16.38 0 30.55 9.49 37.32 23.27 6.05-3.58 12.96-5.88 20.34-6.5-0.16-2-0.25-4-0.25-6.05 0-42.75 34.71-77.46 77.47-77.46z"/>
    <path id="path8751" style="fill:#ffffff" d="m580.32 188.9c13.38 0 24.47 9.89 26.36 22.75 0.47-0.04 0.94-0.07 1.42-0.07 9.21 0 16.71 7.82 16.92 17.53 1.53-0.86 3.3-1.36 5.19-1.36 5.89 0 10.68 4.79 10.68 10.69 0 5.89-6.03 12.35-11.92 12.35-49.96 0.16-83.15 0.66-132.93 0.34-6.7 0-12.83-3.18-12.83-9.88s5.44-12.14 12.14-12.14c1.75 0 3.41 0.37 4.91 1.03 2.72-4.5 7.66-7.52 13.3-7.52 2.22 0 4.34 0.48 6.25 1.32 1.07-6.84 6.98-12.08 14.12-12.08 5.63 0 10.51 3.26 12.83 8 2.08-1.23 4.46-2.02 7-2.24-0.05-0.68-0.08-1.38-0.08-2.08 0-14.7 11.93-26.64 26.64-26.64z"/>
    <path id="path8753" style="fill:#ffffff" d="m486.21 522.38c12.7 0 23.21 9.37 25 21.57 0.45-0.04 0.9-0.06 1.36-0.06 8.73 0 15.84 7.41 16.04 16.62 1.46-0.82 3.13-1.28 4.92-1.28 5.59 0 10.14 4.54 10.14 10.13s-5.72 11.72-11.32 11.72c-47.38 0.15-78.86 0.63-126.07 0.32-6.36 0-12.17-3.02-12.17-9.37 0-6.36 5.16-11.52 11.51-11.52 1.66 0 3.23 0.35 4.66 0.98 2.58-4.27 7.26-7.13 12.62-7.13 2.1 0 4.11 0.45 5.93 1.25 1.01-6.49 6.62-11.46 13.38-11.46 5.35 0 9.97 3.09 12.18 7.59 1.97-1.17 4.23-1.92 6.63-2.12-0.05-0.65-0.08-1.31-0.08-1.97 0-13.95 11.32-25.27 25.27-25.27z"/>
    <path id="path8755" style="fill:#ffffff" d="m694.89 587.7c44.35 0 81.09 32.76 87.34 75.38 1.56-0.14 3.14-0.23 4.73-0.23 30.51 0 55.36 25.9 56.04 58.07 5.1-2.85 10.95-4.48 17.2-4.48 19.53 0 35.4 15.87 35.4 35.4s-19.98 40.94-39.51 40.94c-165.52 0.53-275.49 2.19-440.44 1.11-22.21 0-42.52-10.53-42.52-32.74 0-22.2 18.03-40.23 40.24-40.23 5.79 0 11.28 1.23 16.26 3.43 9.01-14.92 25.37-24.91 44.07-24.91 7.36 0 14.38 1.56 20.72 4.35 3.53-22.65 23.13-40.03 46.77-40.03 18.66 0 34.81 10.82 42.52 26.52 6.9-4.08 14.78-6.7 23.19-7.41-0.18-2.28-0.28-4.56-0.28-6.89 0-48.73 39.55-88.28 88.27-88.28z"/>
    <path id="path8757" style="fill:#ffffff" d="m697.68 907.49c41.89 0 76.61 30.96 82.52 71.22 1.47-0.13 2.96-0.21 4.47-0.21 28.83 0 52.3 24.5 52.94 54.9 4.82-2.7 10.35-4.3 16.26-4.3 18.45 0 33.44 15 33.44 33.5 0 18.4-18.88 38.7-37.33 38.7-156.39 0.5-260.29 2-416.14 1-20.98 0-40.17-9.9-40.17-30.9s17.03-38 38.01-38c5.47 0 10.66 1.1 15.36 3.2 8.52-14.1 23.98-23.5 41.65-23.5 6.95 0 13.58 1.4 19.57 4.1 3.33-21.43 21.85-37.84 44.19-37.84 17.64 0 32.89 10.22 40.18 25.04 6.52-3.8 13.96-6.32 21.9-6.98-0.16-2.16-0.26-4.32-0.26-6.52 0-46.03 37.37-83.41 83.41-83.41z"/>
    <path id="path8759" style="fill:#ffffff" d="m425.45 1108.8c12.9 0 23.59 9.6 25.41 22 0.45-0.1 0.91-0.1 1.37-0.1 8.88 0 16.1 7.5 16.3 16.9 1.48-0.8 3.19-1.3 5-1.3 5.68 0 10.3 4.6 10.3 10.3s-5.81 11.9-11.49 11.9c-48.15 0.2-80.13 0.6-128.11 0.3-6.46 0-12.37-3-12.37-9.5s5.25-11.7 11.71-11.7c1.68 0 3.28 0.4 4.73 1 2.62-4.3 7.38-7.3 12.82-7.3 2.14 0 4.18 0.5 6.02 1.3 1.03-6.6 6.73-11.6 13.61-11.6 5.42 0 10.12 3.1 12.36 7.7 2.01-1.2 4.3-2 6.75-2.2-0.05-0.6-0.08-1.3-0.08-2 0-14.1 11.5-25.7 25.67-25.7z"/>
    <path id="path8761" style="fill:#ffffff" d="m643.51 1175.1c36.25 0 66.29 26.8 71.39 61.6 1.28-0.1 2.57-0.1 3.87-0.1 24.94 0 45.26 21.1 45.81 47.4 4.17-2.3 8.95-3.6 14.06-3.6 15.97 0 28.94 12.9 28.94 28.9s-16.34 33.5-32.3 33.5c-135.3 0.4-225.2 1.8-360.04 0.9-18.15 0-34.76-8.6-34.76-26.8 0-18.1 14.74-32.9 32.89-32.9 4.74 0 9.23 1 13.29 2.8 7.37-12.2 20.75-20.3 36.03-20.3 6.02 0 11.76 1.2 16.94 3.5 2.88-18.5 18.91-32.7 38.23-32.7 15.26 0 28.46 8.8 34.76 21.7 5.64-3.4 12.08-5.5 18.96-6.1-0.15-1.8-0.23-3.7-0.23-5.6 0-39.8 32.33-72.2 72.16-72.2z"/>
    <path id="path8763" style="fill:#ffffff" d="m701.46 1350.2c39.88 0 72.93 29.4 78.55 67.8 1.41-0.2 2.82-0.2 4.26-0.2 27.44 0 49.79 23.3 50.4 52.2 4.59-2.6 9.86-4 15.48-4 17.56 0 31.84 14.2 31.84 31.8s-17.98 36.8-35.54 36.8c-148.88 0.5-247.8 2-396.17 1-19.97 0-38.24-9.4-38.24-29.4s16.21-36.2 36.19-36.2c5.2 0 10.15 1.1 14.62 3.1 8.11-13.4 22.83-22.4 39.65-22.4 6.62 0 12.93 1.4 18.63 3.9 3.17-20.4 20.81-36 42.07-36 16.79 0 31.31 9.7 38.25 23.8 6.2-3.6 13.29-6 20.85-6.6-0.16-2.1-0.25-4.1-0.25-6.2 0-43.9 35.58-79.4 79.41-79.4z"/>
    <path id="path8765" style="fill:#ffffff" d="m638.6-653.51c-43.37 0-79.3 32.04-85.41 73.72-1.53-0.13-3.07-0.22-4.63-0.22-29.84 0-54.14 25.33-54.8 56.79-4.99-2.78-10.72-4.38-16.83-4.38-19.1 0-34.62 15.52-34.62 34.62s19.55 40.04 38.65 40.04c161.87 0.52 269.42 2.14 430.74 1.09 21.71 0 41.58-10.3 41.58-32.02s-17.63-39.35-39.35-39.35c-5.66 0-11.04 1.2-15.9 3.36-8.82-14.6-24.82-24.36-43.11-24.36-7.2 0-14.06 1.52-20.26 4.25-3.45-22.16-22.62-39.15-45.74-39.15-18.25 0-34.04 10.58-41.59 25.94-6.74-4-14.45-6.56-22.67-7.25 0.18-2.23 0.28-4.46 0.28-6.74 0-47.65-38.69-86.34-86.34-86.34z"/>
    <path id="path8767" style="fill:#ffffff" d="m774.87-311.21c-11.34 0-20.74 8.38-22.34 19.28-0.4-0.04-0.8-0.06-1.21-0.06-7.8 0-14.16 6.62-14.33 14.85-1.31-0.73-2.81-1.14-4.4-1.14-5 0-9.06 4.06-9.06 9.05 0 5 5.11 10.47 10.11 10.47 42.34 0.14 70.47 0.56 112.66 0.29 5.68 0 10.87-2.7 10.87-8.38s-4.61-10.29-10.29-10.29c-1.48 0-2.88 0.32-4.16 0.88-2.3-3.82-6.49-6.37-11.27-6.37-1.88 0-3.68 0.4-5.3 1.11-0.9-5.79-5.92-10.24-11.96-10.24-4.78 0-8.91 2.77-10.88 6.79-1.76-1.05-3.78-1.72-5.93-1.9 0.05-0.58 0.07-1.17 0.07-1.76 0-12.47-10.12-22.58-22.58-22.58z"/>
    <path id="path8769" style="fill:#ffffff" d="m729.8-29.118c-37.06 0-67.76 27.375-72.98 62.985-1.31-0.116-2.62-0.191-3.96-0.191-25.49 0-46.25 21.647-46.82 48.525-4.26-2.379-9.15-3.742-14.38-3.742-16.32 0-29.58 13.259-29.58 29.581 0 16.32 16.7 34.21 33.02 34.21 138.31 0.45 230.21 1.83 368.04 0.93 18.55 0 35.52-8.8 35.52-27.36 0-18.556-15.06-33.619-33.61-33.619-4.84 0-9.43 1.029-13.59 2.871-7.54-12.474-21.21-20.818-36.83-20.818-6.15 0-12.02 1.306-17.31 3.636-2.95-18.933-19.33-33.448-39.09-33.448-15.59 0-29.08 9.036-35.53 22.157-5.76-3.411-12.35-5.599-19.37-6.188 0.15-1.907 0.23-3.818 0.23-5.763 0-40.714-33.05-73.766-73.76-73.766z"/>
    <path id="path8771" style="fill:#ffffff" d="m748.27 328.03c-25.29 0-46.24 18.68-49.81 42.98-0.89-0.07-1.79-0.13-2.7-0.13-17.4 0-31.57 14.78-31.96 33.12-2.9-1.62-6.24-2.55-9.81-2.55-11.14 0-20.19 9.05-20.19 20.19s11.4 23.35 22.54 23.35c94.4 0.3 157.12 1.24 251.19 0.63 12.66 0 24.25-6.01 24.25-18.67 0-12.67-10.28-22.95-22.95-22.95-3.3 0-6.43 0.71-9.27 1.96-5.14-8.51-14.48-14.21-25.14-14.21-4.2 0-8.2 0.9-11.81 2.49-2.02-12.93-13.2-22.83-26.68-22.83-10.64 0-19.85 6.16-24.25 15.12-3.93-2.33-8.43-3.82-13.22-4.22 0.1-1.31 0.16-2.61 0.16-3.94 0-27.79-22.56-50.34-50.35-50.34z"/>
    <path id="path8773" style="fill:#ffffff" d="m902.01 452.02c-27.8 0-50.84 20.54-54.75 47.25-0.98-0.08-1.97-0.14-2.97-0.14-19.13 0-34.7 16.24-35.13 36.4-3.19-1.78-6.86-2.8-10.78-2.8-12.24 0-22.19 9.94-22.19 22.19 0 12.24 12.53 25.66 24.77 25.66 103.76 0.34 172.69 1.37 276.14 0.7 13.9 0 26.6-6.6 26.6-20.53 0-13.92-11.3-25.22-25.2-25.22-3.6 0-7.1 0.77-10.2 2.16-5.7-9.36-15.9-15.62-27.6-15.62-4.7 0-9.1 0.98-13 2.73-2.2-14.21-14.5-25.1-29.34-25.1-11.7 0-21.82 6.78-26.66 16.63-4.32-2.56-9.26-4.2-14.53-4.65 0.11-1.43 0.17-2.86 0.17-4.32 0-30.54-24.79-55.34-55.33-55.34z"/>
    <path id="path8775" style="fill:#ffffff" d="m1008.1 956.78c-25.34 0-46.31 18.69-49.88 43.02-0.89-0.08-1.79-0.13-2.7-0.13-17.42 0-31.6 14.83-31.98 33.13-2.91-1.6-6.26-2.5-9.82-2.5-11.15 0-20.21 9-20.21 20.2 0 11.1 11.41 23.3 22.55 23.3 94.44 0.3 157.24 1.3 251.44 0.7 12.6 0 24.2-6 24.2-18.7s-10.3-23-22.9-23c-3.3 0-6.5 0.7-9.3 2-5.2-8.5-14.5-14.2-25.2-14.2-4.2 0-8.2 0.8-11.8 2.4-2-12.9-13.2-22.8-26.7-22.8-10.7 0-19.9 6.2-24.3 15.1-3.9-2.3-8.4-3.8-13.2-4.2 0.1-1.3 0.2-2.6 0.2-3.9 0-27.85-22.6-50.42-50.4-50.42z"/>
    <path id="path8777" style="fill:#ffffff" d="m909.01 1154.8c-20.79 0-38.02 15.4-40.95 35.4-0.74-0.1-1.48-0.1-2.22-0.1-14.31 0-25.96 12.1-26.28 27.2-2.39-1.4-5.14-2.1-8.07-2.1-9.16 0-16.6 7.4-16.6 16.6 0 9.1 9.37 19.2 18.53 19.2 77.62 0.2 129.18 1 206.58 0.5 10.4 0 19.9-4.9 19.9-15.4 0-10.4-8.5-18.8-18.9-18.8-2.7 0-5.3 0.6-7.6 1.6-4.2-7-11.9-11.7-20.7-11.7-3.4 0-6.7 0.7-9.7 2.1-1.6-10.7-10.83-18.8-21.92-18.8-8.75 0-16.32 5.1-19.94 12.4-3.23-1.9-6.93-3.1-10.87-3.5 0.09-1 0.13-2.1 0.13-3.2 0-22.8-18.54-41.4-41.39-41.4z"/>
    <path id="path8779" style="fill:#ffffff" d="m1070.6 1315c-40.3 0-73.67 29.8-79.35 68.5-1.42-0.1-2.85-0.2-4.3-0.2-27.74 0-50.33 23.6-50.94 52.8-4.64-2.6-9.96-4.1-15.64-4.1-17.76 0-32.18 14.4-32.18 32.2s18.16 37.2 35.92 37.2c150.49 0.5 250.49 2 400.39 1 20.2 0 38.7-9.5 38.7-29.7s-16.4-36.6-36.6-36.6c-5.3 0-10.3 1.1-14.8 3.1-8.2-13.6-23.1-22.6-40.1-22.6-6.7 0-13 1.4-18.8 3.9-3.2-20.6-21-36.4-42.5-36.4-17 0-31.7 9.9-38.7 24.1-6.2-3.7-13.4-6.1-21.1-6.7 0.2-2.1 0.3-4.1 0.3-6.3 0-44.3-36-80.2-80.3-80.2z"/>
    <path id="path8781" style="fill:#ffffff" d="m841.51 1696.6c-36.23 0-66.25 26.8-71.36 61.6-1.28-0.1-2.56-0.1-3.87-0.1-24.93 0-45.23 21.1-45.78 47.4-4.17-2.3-8.95-3.7-14.06-3.7-15.96 0-28.92 13-28.92 29 0 15.9 16.32 33.4 32.28 33.4 135.25 0.5 225.11 1.8 359.9 0.9 18.1 0 34.7-8.6 34.7-26.7 0-18.2-14.7-32.9-32.8-32.9-4.8 0-9.3 1-13.3 2.8-7.4-12.2-20.8-20.3-36-20.3-6.1 0-11.8 1.2-17 3.5-2.9-18.5-18.88-32.7-38.19-32.7-15.25 0-28.45 8.8-34.75 21.7-5.63-3.4-12.07-5.5-18.94-6.1 0.14-1.8 0.23-3.7 0.23-5.6 0-39.8-32.32-72.2-72.14-72.2z"/>
    <path id="path8783" style="fill:#ffffff" d="m1053.4-481.83c13 0 23.7 9.56 25.5 22 0.5-0.04 0.9-0.06 1.4-0.06 8.9 0 16.1 7.56 16.3 16.95 1.5-0.83 3.2-1.31 5.1-1.31 5.7 0 10.3 4.63 10.3 10.33 0 5.71-5.8 11.96-11.5 11.96-48.4 0.15-80.5 0.64-128.61 0.32-6.48 0-12.41-3.07-12.41-9.56 0-6.48 5.26-11.74 11.74-11.74 1.69 0 3.3 0.36 4.75 1 2.63-4.36 7.41-7.27 12.87-7.27 2.15 0 4.2 0.46 6.05 1.27 1.03-6.62 6.71-11.69 13.61-11.69 5.5 0 10.2 3.16 12.5 7.74 2-1.19 4.3-1.95 6.7-2.16 0-0.66-0.1-1.33-0.1-2.01 0-14.22 11.6-25.77 25.8-25.77z"/>
    <path id="path8785" style="fill:#ffffff" d="m1231-366.73c46.2 0 84.5 34.13 91 78.52 1.6-0.14 3.3-0.23 4.9-0.23 31.8 0 57.7 26.98 58.4 60.49 5.3-2.96 11.4-4.66 17.9-4.66 20.4 0 36.9 16.53 36.9 36.87 0 20.35-20.8 42.65-41.2 42.65-172.4 0.56-287 2.28-458.79 1.16-23.13 0-44.29-10.97-44.29-34.11 0-23.13 18.77-41.91 41.91-41.91 6.03 0 11.75 1.28 16.94 3.58 9.39-15.55 26.43-25.95 45.93-25.95 7.7 0 15 1.63 21.6 4.53 3.6-23.6 24.1-41.7 48.7-41.7 19.4 0 36.3 11.27 44.3 27.62 7.2-4.25 15.4-6.98 24.1-7.71-0.2-2.38-0.3-4.76-0.3-7.18 0-50.76 41.2-91.97 92-91.97z"/>
    <path id="path8787" style="fill:#ffffff" d="m1273.3-71.533c37 0 67.6 27.327 72.8 62.875 1.3-0.1155 2.6-0.1906 4-0.1906 25.4 0 46.1 21.61 46.7 48.441 4.3-2.375 9.1-3.736 14.4-3.736 16.2 0 29.5 13.237 29.5 29.528s-16.7 34.153-33 34.153c-138 0.444-229.8 1.823-367.4 0.923-18.5 0-35.4-8.783-35.4-27.307s15-33.561 33.5-33.561c4.9 0 9.4 1.027 13.6 2.866 7.5-12.452 21.2-20.782 36.8-20.782 6.1 0 11.9 1.304 17.2 3.63 3-18.9 19.3-33.39 39.1-33.39 15.5-0.0004 29 9.02 35.4 22.119 5.8-3.405 12.3-5.5894 19.4-6.1776-0.2-1.9034-0.3-3.8116-0.3-5.7526 0-40.644 33-73.638 73.7-73.638z"/>
    <path id="path8789" style="fill:#ffffff" d="m1116.4 149.67c37 0 67.6 27.31 72.8 62.83 1.3-0.12 2.7-0.19 4-0.19 25.4 0 46.1 21.59 46.7 48.4 4.2-2.37 9.1-3.73 14.3-3.73 16.3 0 29.5 13.22 29.5 29.5s-16.6 34.12-32.9 34.12c-138 0.45-229.6 1.83-367.09 0.93-18.51 0-35.44-8.78-35.44-27.29s15.02-33.53 33.53-33.53c4.83 0 9.41 1.03 13.56 2.86 7.51-12.44 21.15-20.76 36.73-20.76 6.14 0 11.99 1.3 17.27 3.63 2.94-18.89 19.28-33.37 38.98-33.37 15.56 0 29.06 9.01 35.46 22.1 5.7-3.4 12.3-5.58 19.3-6.17-0.1-1.9-0.2-3.81-0.2-5.75 0-40.61 32.9-73.58 73.5-73.58z"/>
    <path id="path8791" style="fill:#ffffff" d="m1320.1 407.38c29 0 53 21.41 57.1 49.25 1-0.09 2-0.15 3.1-0.15 19.9 0 36.2 16.93 36.6 37.94 3.3-1.86 7.2-2.93 11.2-2.93 12.8 0 23.2 10.37 23.2 23.13s-13.1 26.75-25.9 26.75c-108.1 0.35-179.9 1.43-287.7 0.73-14.5 0-27.8-6.88-27.8-21.39s11.8-26.29 26.3-26.29c3.8 0 7.4 0.8 10.6 2.25 5.9-9.76 16.6-16.28 28.8-16.28 4.8 0 9.4 1.02 13.5 2.84 2.4-14.8 15.2-26.15 30.6-26.15 12.2 0 22.8 7.06 27.8 17.32 4.5-2.66 9.6-4.37 15.1-4.84-0.1-1.49-0.1-2.98-0.1-4.5 0-31.84 25.8-57.68 57.6-57.68z"/>
    <path id="path8793" style="fill:#ffffff" d="m1228.2 724.14c38.9 0 71.1 28.75 76.6 66.14 1.4-0.12 2.8-0.2 4.2-0.2 26.8 0 48.6 22.73 49.1 50.95 4.5-2.5 9.7-3.93 15.1-3.93 17.2 0 31.1 13.92 31.1 31.06 0 17.13-17.5 35.92-34.7 35.92-145.2 0.47-241.7 1.92-386.4 0.97-19.49 0-37.31-9.24-37.31-28.72s15.82-35.3 35.3-35.3c5.08 0 9.9 1.08 14.27 3.01 7.94-13.09 22.24-21.86 38.64-21.86 6.5 0 12.6 1.38 18.2 3.82 3.1-19.88 20.3-35.12 41-35.12 16.4 0 30.6 9.49 37.4 23.27 6-3.58 12.9-5.88 20.3-6.5-0.2-2-0.3-4.01-0.3-6.05 0-42.75 34.8-77.46 77.5-77.46z"/>
    <path id="path8795" style="fill:#ffffff" d="m1323.4 1015.6c17.3 0 31.7 12.8 34.1 29.4 0.6 0 1.2-0.1 1.9-0.1 11.9 0 21.5 10.1 21.8 22.7 2-1.1 4.3-1.8 6.7-1.8 7.6 0 13.8 6.2 13.8 13.8s-7.8 16-15.4 16c-64.6 0.2-107.4 0.9-171.8 0.4-8.7 0-16.6-4.1-16.6-12.7 0-8.7 7.1-15.7 15.7-15.7 2.3 0 4.4 0.4 6.4 1.3 3.5-5.8 9.9-9.7 17.2-9.7 2.8 0 5.6 0.6 8 1.7 1.4-8.8 9.1-15.6 18.3-15.6 7.3 0 13.6 4.2 16.6 10.3 2.7-1.6 5.7-2.6 9-2.9-0.1-0.9-0.1-1.8-0.1-2.7 0-19 15.4-34.4 34.4-34.4z"/>
    <path id="path8797" style="fill:#ffffff" d="m1309.2 1509c39 0 71.3 28.7 76.8 66.2 1.4-0.1 2.7-0.2 4.1-0.2 26.9 0 48.7 22.8 49.3 51 4.5-2.5 9.6-3.9 15.1-3.9 17.2 0 31.1 13.9 31.1 31.1 0 17.1-17.6 36-34.7 36-145.5 0.4-242.1 1.9-387 0.9-19.5 0-37.4-9.2-37.4-28.7s15.8-35.4 35.4-35.4c5 0 9.9 1.1 14.2 3 8-13.1 22.3-21.9 38.8-21.9 6.4 0 12.6 1.4 18.2 3.9 3.1-19.9 20.3-35.2 41.1-35.2 16.4 0 30.6 9.5 37.3 23.3 6.1-3.6 13-5.9 20.4-6.5-0.1-2-0.2-4-0.2-6.1 0-42.8 34.7-77.5 77.5-77.5z"/>
    <path id="path8799" style="fill:#ffffff" d="m1511 1696.6c23.6 0 43.1 17.5 46.4 40.1 0.9 0 1.7-0.1 2.5-0.1 16.3 0 29.5 13.8 29.9 30.9 2.7-1.5 5.8-2.4 9.1-2.4 10.4 0 18.8 8.5 18.8 18.9s-10.6 21.7-21 21.7c-88 0.3-146.5 1.2-234.3 0.6-11.8 0-22.6-5.6-22.6-17.4s9.6-21.4 21.4-21.4c3.1 0 6 0.7 8.7 1.8 4.8-7.9 13.5-13.2 23.4-13.2 3.9 0 7.7 0.8 11 2.3 1.9-12 12.3-21.3 24.9-21.3 9.9 0 18.5 5.8 22.6 14.1 3.7-2.2 7.9-3.5 12.4-3.9-0.1-1.2-0.2-2.5-0.2-3.7 0-25.9 21.1-47 47-47z"/>
    <path id="path8801" style="fill:#ffffff" d="m1437.5-561.99c-38.6 0-70.5 28.44-75.9 65.45-1.3-0.12-2.7-0.2-4.1-0.2-26.5 0-48.1 22.5-48.7 50.43-4.4-2.47-9.5-3.89-14.9-3.89-17 0-30.7 13.78-30.7 30.74s17.3 35.55 34.3 35.56c143.7 0.46 239.2 1.89 382.4 0.96 19.3 0 37-9.15 37-28.43 0-19.29-15.7-34.94-35-34.94-5 0-9.8 1.07-14.1 2.98-7.8-12.96-22-21.63-38.3-21.63-6.4 0-12.5 1.36-18 3.78-3-19.68-20-34.76-40.6-34.76-16.2 0-30.2 9.39-36.9 23.02-6-3.54-12.8-5.81-20.1-6.43 0.1-1.98 0.2-3.96 0.2-5.98 0-42.32-34.3-76.66-76.6-76.66z"/>
    <path id="path8803" style="fill:#ffffff" d="m1634.7-226.08c-41.5 0-75.9 30.65-81.7 70.53-1.5-0.13-3-0.22-4.5-0.22-28.5 0-51.8 24.24-52.4 54.34-4.8-2.66-10.2-4.19-16.1-4.19-18.3 0-33.1 14.85-33.1 33.124s18.7 38.311 37 38.311c154.8 0.499 257.7 2.045 412.1 1.038 20.8 0 39.8-9.854 39.8-30.634 0-20.779-16.9-37.649-37.7-37.649-5.4 0-10.5 1.15-15.2 3.217-8.4-13.967-23.7-23.307-41.2-23.307-6.9 0-13.5 1.46-19.4 4.07-3.3-21.2-21.7-37.46-43.8-37.46-17.4 0-32.6 10.12-39.8 24.81-6.4-3.82-13.8-6.27-21.7-6.93 0.2-2.13 0.3-4.27 0.3-6.45 0-45.59-37-82.6-82.6-82.6z"/>
    <path id="path8805" style="fill:#ffffff" d="m1441.1 143.65c-22.9 0-41.9 16.91-45.1 38.91-0.8-0.07-1.6-0.12-2.4-0.12-15.8 0-28.6 13.37-29 29.98-2.6-1.47-5.6-2.32-8.8-2.32-10.1 0-18.3 8.19-18.3 18.28 0 10.08 10.3 21.13 20.4 21.13 85.4 0.28 142.2 1.13 227.3 0.57 11.5 0 22-5.43 22-16.9 0-11.46-9.3-20.76-20.8-20.76-3 0-5.8 0.63-8.4 1.77-4.6-7.71-13.1-12.86-22.7-12.86-3.8 0-7.5 0.81-10.7 2.25-1.8-11.7-12-20.67-24.2-20.67-9.6 0-17.9 5.58-21.9 13.69-3.6-2.11-7.6-3.46-12-3.82 0.1-1.18 0.2-2.36 0.2-3.56 0-25.15-20.5-45.57-45.6-45.57z"/>
    <path id="path8807" style="fill:#ffffff" d="m1635.6 324.39c-39.4 0-72 29.07-77.5 66.89-1.4-0.12-2.8-0.2-4.2-0.2-27.1 0-49.2 22.99-49.8 51.53-4.5-2.52-9.7-3.97-15.2-3.97-17.4 0-31.4 14.08-31.4 31.41s17.7 36.34 35 36.34c146.9 0.47 244.5 1.94 390.9 0.98 19.7 0 37.7-9.35 37.7-29.05 0-19.71-16-35.71-35.7-35.71-5.1 0-10 1.09-14.4 3.05-8-13.25-22.5-22.11-39.1-22.11-6.6 0-12.8 1.39-18.4 3.86-3.1-20.1-20.5-35.52-41.5-35.52-16.6 0-30.9 9.6-37.8 23.53-6.1-3.62-13.1-5.94-20.5-6.57 0.1-2.02 0.2-4.05 0.2-6.12 0-43.24-35.1-78.34-78.3-78.34z"/>
    <path id="path8809" style="fill:#ffffff" d="m1395.7 598.37c-23 0-42 16.97-45.2 39.04-0.8-0.07-1.7-0.12-2.5-0.12-15.8 0-28.7 13.42-29 30.08-2.6-1.48-5.7-2.32-8.9-2.32-10.1 0-18.3 8.22-18.3 18.33 0 10.12 10.3 21.21 20.4 21.21 85.7 0.27 142.7 1.13 228.1 0.57 11.5 0 22-5.45 22-16.95 0-11.51-9.3-20.84-20.8-20.84-3 0-5.8 0.64-8.4 1.78-4.7-7.73-13.2-12.9-22.8-12.9-3.9 0-7.5 0.8-10.8 2.25-1.8-11.74-12-20.73-24.2-20.73-9.7 0-18 5.6-22 13.73-3.6-2.11-7.7-3.47-12-3.83 0.1-1.19 0.1-2.37 0.1-3.58 0-25.23-20.5-45.72-45.7-45.72z"/>
    <path id="path8811" style="fill:#ffffff" d="m1625.9 711.55c-47.6 0-87 35.15-93.7 80.88-1.7-0.15-3.4-0.24-5.1-0.24-32.8 0-59.4 27.8-60.2 62.31-5.4-3.05-11.7-4.8-18.4-4.8-21 0-38 17.02-38 37.98s21.4 43.94 42.4 43.94c177.6 0.57 295.6 2.34 472.6 1.19 23.9 0 45.7-11.3 45.7-35.13s-19.4-43.18-43.2-43.18c-6.2 0-12.1 1.32-17.5 3.69-9.6-16.02-27.2-26.74-47.3-26.74-7.9 0-15.4 1.68-22.2 4.67-3.8-24.31-24.8-42.95-50.2-42.95-20 0-37.3 11.6-45.6 28.45-7.4-4.38-15.9-7.19-24.9-7.94 0.2-2.45 0.3-4.91 0.3-7.4 0-52.29-42.4-94.73-94.7-94.73z"/>
    <path id="path8813" style="fill:#ffffff" d="m1485.4 1022.7c-16.4 0-30 12.1-32.4 27.9-0.5-0.1-1.1-0.1-1.7-0.1-11.3 0-20.5 9.6-20.8 21.5-1.9-1-4-1.6-6.3-1.6-7.3 0-13.2 5.8-13.2 13.1 0 7.2 7.4 15.1 14.7 15.1 61.3 0.2 102 0.8 163.2 0.4 8.2 0 15.7-3.9 15.7-12.1s-6.7-14.9-14.9-14.9c-2.1 0-4.2 0.5-6 1.3-3.4-5.5-9.4-9.2-16.4-9.2-2.7 0-5.3 0.5-7.6 1.6-1.3-8.4-8.6-14.9-17.4-14.9-6.9 0-12.9 4-15.7 9.9-2.6-1.6-5.5-2.5-8.6-2.8 0.1-0.8 0.1-1.7 0.1-2.5 0-18.1-14.6-32.7-32.7-32.7z"/>
    <path id="path8815" style="fill:#ffffff" d="m1427.8 1148.8c-34.4 0-62.8 25.3-67.7 58.4-1.2-0.1-2.4-0.2-3.7-0.2-23.6 0-42.8 20.1-43.4 45-3.9-2.2-8.5-3.5-13.3-3.5-15.1 0-27.4 12.3-27.4 27.4 0 15.2 15.5 31.7 30.6 31.7 128.2 0.5 213.4 1.7 341.2 0.9 17.2 0 33-8.2 33-25.4s-14-31.1-31.2-31.1c-4.5 0-8.7 0.9-12.6 2.6-7-11.5-19.7-19.3-34.1-19.3-5.7 0-11.2 1.2-16.1 3.4-2.7-17.6-17.9-31-36.2-31-14.5 0-27 8.4-33 20.5-5.3-3.1-11.4-5.2-17.9-5.7 0.1-1.8 0.2-3.5 0.2-5.3 0-37.8-30.7-68.4-68.4-68.4z"/>
    <path id="path8817" style="fill:#ffffff" d="m1711.9 1404.2c-26.4 0-48.2 19.5-51.9 44.8-1-0.1-1.9-0.2-2.8-0.2-18.2 0-32.9 15.4-33.3 34.5-3.1-1.7-6.5-2.6-10.2-2.6-11.7 0-21.1 9.4-21.1 21s11.9 24.3 23.5 24.3c98.3 0.3 163.6 1.3 261.6 0.7 13.2 0 25.3-6.3 25.3-19.5s-10.7-23.9-23.9-23.9c-3.4 0-6.7 0.8-9.7 2.1-5.3-8.9-15-14.8-26.2-14.8-4.3 0-8.5 0.9-12.3 2.6-2.1-13.5-13.7-23.8-27.7-23.8-11.1 0-20.7 6.4-25.3 15.7-4.1-2.4-8.8-3.9-13.8-4.4 0.1-1.3 0.2-2.7 0.2-4.1 0-28.9-23.5-52.4-52.4-52.4z"/>
    <path id="path8819" style="fill:#ffffff" d="m1662.5 1812.7c-35.7 0-65.2 26.3-70.2 60.6-1.3-0.1-2.5-0.2-3.8-0.2-24.5 0-44.5 20.8-45 46.6-4.1-2.2-8.8-3.6-13.8-3.6-15.7 0-28.5 12.8-28.5 28.5s16.1 32.9 31.8 32.9c132.9 0.4 221.3 1.7 353.8 0.9 17.8 0 34.2-8.5 34.2-26.3 0-17.9-14.5-32.4-32.4-32.4-4.6 0-9 1-13 2.8-7.3-12-20.4-20-35.4-20-5.9 0-11.6 1.2-16.7 3.5-2.8-18.2-18.6-32.2-37.5-32.2-15 0-28 8.7-34.2 21.3-5.6-3.2-11.9-5.4-18.6-5.9 0.1-1.9 0.2-3.7 0.2-5.6 0-39.1-31.8-70.9-70.9-70.9z"/>
  </g>
  <metadata>
    <rdf:RDF>
      <cc:Work>
        <dc:format>image/svg+xml</dc:format>
        <dc:type rdf:resource="http://purl.org/dc/dcmitype/StillImage"/>
        <cc:license rdf:resource="http://creativecommons.org/licenses/publicdomain/"/>
        <dc:publisher>
          <cc:Agent rdf:about="http://openclipart.org/">
            <dc:title>Openclipart</dc:title>
          </cc:Agent>
        </dc:publisher>
        <dc:title>Simple Clouds</dc:title>
        <dc:date>2007-04-27T06:55:52</dc:date>
        <dc:description>A simple cloud pattern made with the Clone Tile feature of Inkscape then unclumped and arranged nicely.&#13;\n&#13;\nSuitable for a wallpaper or background for another drawing</dc:description>
        <dc:source>https://openclipart.org/detail/4112/simple-clouds-by-clue</dc:source>
        <dc:creator>
          <cc:Agent>
            <dc:title>Clue</dc:title>
          </cc:Agent>
        </dc:creator>
        <dc:subject>
          <rdf:Bag>
            <rdf:li>blue</rdf:li>
            <rdf:li>clouds</rdf:li>
            <rdf:li>pattern</rdf:li>
            <rdf:li>simple</rdf:li>
            <rdf:li>sky</rdf:li>
            <rdf:li>wallpaper</rdf:li>
          </rdf:Bag>
        </dc:subject>
      </cc:Work>
      <cc:License rdf:about="http://creativecommons.org/licenses/publicdomain/">
        <cc:permits rdf:resource="http://creativecommons.org/ns#Reproduction"/>
        <cc:permits rdf:resource="http://creativecommons.org/ns#Distribution"/>
        <cc:permits rdf:resource="http://creativecommons.org/ns#DerivativeWorks"/>
      </cc:License>
    </rdf:RDF>
  </metadata>
</svg>
