<?xml version="1.0" encoding="utf-8"?>
<!-- Generator: Adobe Illustrator 23.0.1, SVG Export Plug-In . SVG Version: 6.00 Build 0)  -->
<svg version="1.1" id="Layer_2" xmlns="http://www.w3.org/2000/svg" xmlns:xlink="http://www.w3.org/1999/xlink" x="0px" y="0px"
	 width="100px" height="100px" viewBox="0 0 100 100" style="enable-background:new 0 0 100 100;" xml:space="preserve">
<style type="text/css">
	.st0{fill:#60B2B8;}
	.st1{fill:#FFFFFF;}
</style>
<g id="Layer_1">
	<g>
		<path class="st0" d="M13.81879,49.79897c0.02366-20.50569,15.91284-34.75631,33.08318-35.85777
			c23.42092-1.50242,37.19691,15.67486,38.99657,31.40824c1.17554,10.27707-1.29594,19.62194-7.78081,27.57236
			c-6.14345,7.53183-14.28587,11.93021-24.08328,12.98489c-10.75005,1.15723-20.35093-1.79842-28.34407-8.911
			C17.67098,69.85974,13.8151,60.58894,13.81879,49.79897z M69.59399,37.16753c-0.02116-3.94337-2.25717-6.25276-5.19623-6.74606
			c-4.11886-0.69133-6.45331,1.63547-8.87948,4.19658c-1.81319,1.91404-3.74567,3.71467-5.61134,5.57948
			c-3.85806,3.85628-7.71338,7.71534-11.55707,11.58593c-1.97483,1.98866-4.26889,3.77528-5.7873,6.07084
			c-1.61208,2.43717-1.39041,5.63815-2.20266,8.44801c-0.13314,0.46057-0.41186,0.96776-0.31934,1.38619
			c0.18606,0.84142-1.67836,2.65549,0.79125,2.41922c3.09504-0.29608,6.14926-1.03603,9.2134-1.62448
			c0.64777-0.1244,1.42223-0.25215,1.86504-0.66879c2.18876-2.05946,4.30167-4.20076,6.41146-6.34262
			c3.37547-3.42679,6.72073-6.88331,10.09146-10.3148c2.5117-2.55698,5.02589-5.112,7.57212-7.63442
			C67.87576,41.64983,70.10921,39.98729,69.59399,37.16753z"/>
		<path class="st1" d="M69.59399,37.16753c0.51522,2.81976-1.71822,4.4823-3.60868,6.35506
			c-2.54624,2.52242-5.06042,5.07744-7.57212,7.63442c-3.37073,3.43149-6.716,6.88802-10.09146,10.3148
			c-2.10979,2.14186-4.2227,4.28317-6.41146,6.34262c-0.44281,0.41664-1.21727,0.54439-1.86504,0.66879
			c-3.06414,0.58846-6.11835,1.3284-9.2134,1.62448c-2.46961,0.23627-0.60519-1.5778-0.79125-2.41922
			c-0.09252-0.41843,0.18619-0.92562,0.31934-1.38619c0.81225-2.80985,0.59058-6.01083,2.20266-8.44801
			c1.51841-2.29556,3.81247-4.08218,5.7873-6.07084c3.84369-3.87059,7.69901-7.72966,11.55707-11.58593
			c1.86568-1.86481,3.79815-3.66544,5.61134-5.57948c2.42617-2.56111,4.76062-4.88791,8.87948-4.19658
			C67.33681,30.91477,69.57283,33.22416,69.59399,37.16753z M42.02694,62.83259c1.29362-1.23819,2.50206-2.35569,3.66705-3.51677
			c4.70504-4.68927,9.47808-9.31607,14.00599-14.17112c0.68315-0.73251,3.00099-1.16468,1.73032-3.03771
			c-0.6622-0.97613-1.65309-1.75871-2.59174-2.50822c-0.7045-0.56254-1.3287-2.14118-2.45232-1.04266
			c-6.24936,6.10975-12.40365,12.31691-18.56053,18.52046c-0.27982,0.28194-1.15857,0.82741-0.2905,1.26812
			c1.23573,0.62736,2.14082,1.5581,3.00613,2.56641C41.04432,61.4972,41.48949,62.13293,42.02694,62.83259z M66.8827,37.13262
			c-0.00436-1.72575-2.42265-4.24028-3.8124-4.05206c-1.52491,0.20652-2.71215,1.17073-3.48521,2.50562
			c-0.18135,0.31316,4.40554,4.91876,4.72425,4.75179C65.728,39.59482,66.39257,38.25218,66.8827,37.13262z M34.99826,66.03408
			c1.24234-0.37289,2.81064-0.47408,3.81818-1.27803c0.65453-0.52226-0.65892-1.5682-1.17464-2.18502
			c-0.58565-0.70049-1.38371-1.69105-2.49356-1.49104c-0.9789,0.17641-0.36934,1.19641-0.57421,1.80932
			c-0.10871,0.32524-0.33561,0.65267-0.31958,0.96953C34.2912,64.58508,33.19782,65.68987,34.99826,66.03408z"/>
		<path class="st0" d="M42.02694,62.83259c-0.53744-0.69965-0.98261-1.33538-1.48561-1.92149
			c-0.86532-1.00831-1.77041-1.93906-3.00613-2.56641c-0.86806-0.44071,0.01069-0.98618,0.2905-1.26812
			c6.15688-6.20355,12.31118-12.41071,18.56053-18.52046c1.12362-1.09851,1.74781,0.48013,2.45232,1.04266
			c0.93865,0.7495,1.92953,1.53209,2.59174,2.50822c1.27068,1.87303-1.04717,2.30521-1.73032,3.03771
			c-4.5279,4.85506-9.30095,9.48186-14.00599,14.17112C44.52899,60.4769,43.32056,61.59439,42.02694,62.83259z"/>
		<path class="st0" d="M66.8827,37.13262c-0.49013,1.11956-1.15469,2.4622-2.57336,3.20535
			c-0.31872,0.16697-4.9056-4.43863-4.72425-4.75179c0.77306-1.33489,1.9603-2.2991,3.48521-2.50562
			C64.46005,32.89235,66.87834,35.40687,66.8827,37.13262z"/>
		<path class="st0" d="M34.99826,66.03408c-1.80045-0.34422-0.70706-1.449-0.7438-2.17524
			c-0.01603-0.31686,0.21087-0.64428,0.31958-0.96953c0.20487-0.61291-0.40469-1.63291,0.57421-1.80932
			c1.10986-0.20002,1.90791,0.79055,2.49356,1.49104c0.51571,0.61683,1.82916,1.66276,1.17464,2.18502
			C37.8089,65.56,36.2406,65.66119,34.99826,66.03408z"/>
	</g>
</g>
<g id="Layer_3">
</g>
</svg>
