<?xml version="1.0" encoding="utf-8"?>
<!-- Generator: Adobe Illustrator 23.0.1, SVG Export Plug-In . SVG Version: 6.00 Build 0)  -->
<svg version="1.1" id="Layer_2" xmlns="http://www.w3.org/2000/svg" xmlns:xlink="http://www.w3.org/1999/xlink" x="0px" y="0px"
	 width="100px" height="100px" viewBox="0 0 100 100" style="enable-background:new 0 0 100 100;" xml:space="preserve">
<style type="text/css">
	.st0{fill:#FFFFFF;}
</style>
<g id="Layer_1">
	<g>
		<path d="M50.41632,86.03776c-0.33191,0-0.66525-0.02014-0.99548,0.00339c-1.67171,0.11914-3.29224-0.23457-4.92437-0.50194
			c-1.48074-0.24255-2.89707-0.64551-4.24176-1.33816c-3.08261-1.58785-5.03563-4.07181-5.73093-7.43666
			c-0.3012-1.45765-0.35027-2.97294-0.01709-4.49944c0.65512-3.00149,2.0769-5.62119,3.71836-8.1583
			c0.43634-0.67443,0.83806-1.37286,1.22587-2.07669c0.56752-1.02998,0.59584-2.09492,0.25299-3.22139
			c-0.40598-1.33385-0.82797-2.67764-1.05471-4.04827c-0.52667-3.18375,0.71229-6.41225,3.75567-8.06664
			c1.26409-0.68716,2.61295-1.10298,4.02411-1.3368c0.62276-0.10319,0.65328-0.11845,0.6559-0.76204
			c0.00627-1.54096-0.01497-3.08217,0.00472-4.62291c0.03478-2.72137-0.01009-5.44913,0.16781-8.1618
			c0.18182-2.77255,0.03115-5.53967,0.11156-8.30774c0.01692-0.58259-0.13269-1.07724-0.55174-1.54045
			c-0.33458-0.36984-0.41821-0.87689-0.38765-1.43552c0.05767-1.05402-0.03269-2.11593-0.05531-3.1747
			c-0.00648-0.30361,0.05204-0.54591,0.27545-0.82346c0.22353-0.27768,0.23041-0.74802,0.28358-1.1405
			c0.0926-0.6835,0.07955-0.66942,0.73082-0.77474c0.21837-0.03532,0.44664-0.14083,0.62396-0.27542
			c0.70211-0.53294,1.65138-0.58897,2.44608-0.15234c0.19423,0.10671,0.44613,0.13163,0.67482,0.14795
			c0.60715,0.04336,0.61514,0.03176,0.74232,0.62435c0.04425,0.20616,0.05126,0.42179,0.0602,0.63373
			c0.01368,0.32433-0.06741,0.68208,0.39635,0.79313c0.06185,0.01481,0.12364,0.19051,0.12025,0.28946
			c-0.01512,0.44118-0.05968,0.88124-0.083,1.32227c-0.05227,0.98826-0.11005,1.97649-0.14075,2.9655
			c-0.01173,0.37767-0.14103,0.58773-0.4431,0.86291c-0.35483,0.32323-0.72408,0.79704-0.69813,1.37416
			c0.02432,0.54105,0.12078,1.07953,0.13309,1.62034c0.0592,2.60269,0.09702,5.20586,0.14956,7.80871
			c0.04153,2.05754-0.00097,4.12276,0.1703,6.16981c0.13887,1.65984,0.05767,3.31144,0.1112,4.96563
			c0.00689,0.21309-0.01075,0.429,0.01735,0.639c0.09548,0.71381,0.1753,0.70863,0.87598,0.81684
			c2.29111,0.35382,4.53429,0.8662,6.16265,2.71631c1.01772,1.15631,1.67086,2.48615,1.92857,4.03341
			c0.29112,1.74786-0.23558,3.36914-0.60689,5.01958c-0.11914,0.5296-0.2852,1.05265-0.4762,1.56126
			c-0.41415,1.1028-0.25059,2.15602,0.28503,3.15128c0.57135,1.06166,1.18534,2.10233,1.82239,3.12623
			c1.20342,1.93422,2.32753,3.91015,3.09564,6.0602c0.26823,0.7508,0.3884,1.55688,0.54659,2.34366
			c0.08338,0.41468,0.1434,0.84203,0.14486,1.2639c0.00918,2.66598-0.76387,5.07446-2.40652,7.19227
			c-1.21408,1.56526-2.81369,2.56213-4.65377,3.22692c-1.45632,0.52617-2.96976,0.79807-4.49423,0.97434
			c-1.24145,0.14356-2.4987,0.15048-3.74894,0.21799C50.41861,86.0835,50.41747,86.06064,50.41632,86.03776z M50.42621,85.8978
			c0.00102,0.01942,0.00204,0.03883,0.00306,0.05824c1.20338-0.06694,2.41432-0.07163,3.60824-0.21656
			c1.49974-0.18206,2.98701-0.45464,4.42789-0.95472c1.52685-0.52993,2.89685-1.31823,4.02881-2.45399
			c0.86971-0.87264,1.54303-1.91085,2.05576-3.04641c1.26301-2.79721,1.30441-5.62428,0.24593-8.48532
			c-0.75191-2.03242-1.82933-3.89673-2.95266-5.73917c-0.65277-1.07064-1.30526-2.144-1.8958-3.24931
			c-0.56974-1.0664-0.67527-2.20334-0.27825-3.3698c0.17536-0.51522,0.35248-1.03302,0.47659-1.5619
			c0.37069-1.57954,0.88395-3.13937,0.60521-4.80724c-0.33096-1.98033-1.2659-3.61387-2.83778-4.83931
			c-1.56369-1.21904-3.446-1.62476-5.36419-1.86649c-0.56236-0.07087-0.57038-0.03446-0.69601-0.59221
			c-0.03617-0.16055-0.06076-0.32674-0.06497-0.491c-0.05278-2.05798-0.09751-4.11615-0.15118-6.17411
			c-0.04007-1.5367-0.09299-3.07306-0.13499-4.60971c-0.05235-1.91529-0.09492-3.83085-0.15026-5.74604
			c-0.03619-1.25234-0.09698-2.50401-0.12726-3.75645c-0.01137-0.47027-0.10504-1.01215,0.08976-1.39302
			c0.19297-0.37729,0.3391-0.76152,0.49121-1.15044c0.07467-0.19094,0.16758-0.5048,0.31005-0.02559
			c0.0655-0.03757,0.17381-0.06327,0.18816-0.11503c0.03724-0.13431,0.03778-0.27985,0.0448-0.42131
			c0.04892-0.98674,0.09919-1.97343,0.14154-2.96046c0.01614-0.37611,0.02003-0.7532,0.01307-1.12954
			c-0.00187-0.10116-0.04375-0.27377-0.10186-0.29004c-0.38746-0.10849-0.31684-0.41228-0.33924-0.69015
			c-0.02457-0.30469-0.07368-0.6074-0.11245-0.91093c-0.0409-0.32016-0.19812-0.41041-0.53483-0.39127
			c-0.28251,0.01606-0.60546-0.07112-0.85541-0.21103c-0.61579-0.34467-1.50159-0.33542-2.04755,0.1277
			c-0.24813,0.21048-0.48711,0.33421-0.81944,0.34922c-0.50964,0.02302-0.49399,0.08831-0.61014,0.58806
			c-0.11966,0.51486,0.162,1.16854-0.4835,1.52537c-0.0495,0.02736-0.04609,0.17414-0.04531,0.26522
			c0.01085,1.25669,0.00749,2.514,0.05306,3.76951c0.01032,0.28432,0.11577,0.65021,0.31326,0.82575
			c0.47206,0.41962,0.61013,0.92496,0.59764,1.50471c-0.06223,2.88752,0.06561,5.77395-0.10985,8.66488
			c-0.16906,2.7856-0.13138,5.58415-0.16832,8.37722c-0.01975,1.49315,0.00069,2.98679-0.00921,4.48013
			c-0.00402,0.60527-0.04886,0.59859-0.6224,0.72707c-0.87564,0.19616-1.76151,0.38182-2.60493,0.67977
			c-2.17073,0.76685-3.85145,2.11405-4.73447,4.30582c-0.55064,1.36676-0.77089,2.79028-0.44795,4.24165
			c0.28747,1.29194,0.61783,2.57814,1.00939,3.84206c0.39988,1.29077,0.37888,2.52258-0.28345,3.70504
			c-0.46208,0.82496-0.97053,1.62454-1.47369,2.42578c-1.47991,2.35662-2.75545,4.78995-3.38388,7.54308
			c-0.33149,1.45225-0.32141,2.90274-0.03297,4.28938c0.89022,4.27963,3.62667,7.01781,7.71562,8.31276
			c2.38564,0.75552,4.8805,1.14186,7.41518,1.04126C49.99923,85.89045,50.21287,85.8978,50.42621,85.8978z"/>
		<path class="st0" d="M50.42621,85.8978c-0.21334,0-0.42698-0.00735-0.63998,0.00111
			c-2.53468,0.1006-5.02955-0.28574-7.41518-1.04126c-4.08894-1.29495-6.82539-4.03313-7.71562-8.31276
			c-0.28844-1.38663-0.29852-2.83713,0.03297-4.28938c0.62843-2.75314,1.90397-5.18646,3.38388-7.54308
			c0.50316-0.80124,1.01161-1.60082,1.47369-2.42578c0.66233-1.18246,0.68332-2.41427,0.28345-3.70504
			c-0.39156-1.26392-0.72192-2.55012-1.00939-3.84206c-0.32294-1.45137-0.10269-2.87489,0.44795-4.24165
			c0.88303-2.19177,2.56375-3.53897,4.73447-4.30582c0.84343-0.29795,1.72929-0.48361,2.60493-0.67977
			c0.57354-0.12849,0.61839-0.1218,0.6224-0.72707c0.0099-1.49334-0.01054-2.98698,0.00921-4.48013
			c0.03694-2.79307-0.00074-5.59161,0.16832-8.37722c0.17545-2.89093,0.04762-5.77736,0.10985-8.66488
			c0.01249-0.57975-0.12557-1.08509-0.59764-1.50471c-0.19748-0.17554-0.30293-0.54143-0.31326-0.82575
			c-0.04557-1.25551-0.04221-2.51282-0.05306-3.76951c-0.00079-0.09108-0.0042-0.23785,0.04531-0.26522
			c0.6455-0.35683,0.36385-1.01051,0.4835-1.52537c0.11615-0.49975,0.10049-0.56504,0.61014-0.58806
			c0.33233-0.01501,0.57131-0.13874,0.81944-0.34922c0.54596-0.46311,1.43176-0.47237,2.04755-0.1277
			c0.24995,0.1399,0.57291,0.22708,0.85541,0.21103c0.3367-0.01914,0.49393,0.07111,0.53483,0.39127
			c0.03878,0.30353,0.08788,0.60625,0.11245,0.91093c0.02241,0.27787-0.04822,0.58166,0.33924,0.69015
			c0.05811,0.01627,0.09999,0.18887,0.10186,0.29004c0.00696,0.37634,0.00307,0.75343-0.01307,1.12954
			c-0.04235,0.98703-0.09261,1.97372-0.14154,2.96046c-0.00701,0.14146-0.00756,0.287-0.0448,0.42131
			c-0.01435,0.05175-0.12266,0.07746-0.18816,0.11503c-0.14247-0.47922-0.23537-0.16535-0.31005,0.02559
			c-0.15211,0.38893-0.29824,0.77316-0.49121,1.15044c-0.19481,0.38087-0.10113,0.92275-0.08976,1.39302
			c0.03028,1.25244,0.09107,2.50412,0.12726,3.75645c0.05534,1.9152,0.09791,3.83076,0.15026,5.74604
			c0.042,1.53665,0.09492,3.07301,0.13499,4.60971c0.05367,2.05795,0.0984,4.11613,0.15118,6.17411
			c0.00422,0.16426,0.0288,0.33045,0.06497,0.491c0.12564,0.55775,0.13366,0.52134,0.69601,0.59221
			c1.91818,0.24173,3.8005,0.64744,5.36419,1.86649c1.57188,1.22544,2.50682,2.85898,2.83778,4.83931
			c0.27874,1.66787-0.23452,3.2277-0.60521,4.80724c-0.12411,0.52888-0.30124,1.04668-0.47659,1.5619
			c-0.39702,1.16646-0.29149,2.3034,0.27825,3.3698c0.59053,1.10531,1.24303,2.17868,1.8958,3.24931
			c1.12333,1.84245,2.20074,3.70675,2.95266,5.73917c1.05848,2.86105,1.01707,5.68811-0.24593,8.48532
			c-0.51273,1.13556-1.18605,2.17377-2.05576,3.04641c-1.13195,1.13577-2.50196,1.92406-4.02881,2.45399
			c-1.44088,0.50008-2.92815,0.77266-4.42789,0.95472c-1.19392,0.14493-2.40486,0.14962-3.60824,0.21656
			C50.42825,85.93662,50.42723,85.91721,50.42621,85.8978z M46.08731,56.8218c-0.00231,1.99098,1.53556,3.63247,3.42084,3.61155
			c1.89071-0.02098,3.72304-1.49712,3.65608-3.43352c-0.07759-2.24419-1.29262-3.72828-3.66962-3.80005
			C47.465,53.13849,45.93946,55.10603,46.08731,56.8218z M50.07464,18.28672c0.0019,0.25819,0.05211,0.45489,0.3861,0.44892
			c0.64823-0.01159,0.88165-0.15493,0.89063-0.58952c0.00673-0.32564-0.17654-0.41408-0.80848-0.39014
			C50.17119,17.77006,50.06681,17.88838,50.07464,18.28672z M48.3568,17.92427c-0.49794,0.01549-0.54168,0.07612-0.56577,0.49135
			c-0.02582,0.44504,0.24778,0.41395,0.54167,0.40543c0.36822-0.01067,0.47378-0.12657,0.46423-0.51063
			C48.78954,18.01357,48.66081,17.87379,48.3568,17.92427z M48.94159,19.97347c0.0088-0.37323-0.06789-0.4763-0.34952-0.46972
			c-0.4181,0.00976-0.77114,0.26271-0.78009,0.57088c-0.01116,0.38433,0.26611,0.38529,0.53687,0.38815
			C48.8283,20.46784,48.93195,20.38231,48.94159,19.97347z M50.62631,20.32023c0.45412,0.00405,0.57669-0.08369,0.58622-0.41962
			c0.01003-0.35365-0.23513-0.51632-0.76108-0.51675c-0.3401-0.00027-0.36583,0.23894-0.37192,0.48295
			C50.07056,20.22637,50.18559,20.31631,50.62631,20.32023z M48.65352,21.02925c-0.23,0.13397-0.44027,0.23145-0.61211,0.37495
			c-0.04052,0.03383,0.01709,0.29553,0.08454,0.32451c0.12679,0.0545,0.33019,0.0712,0.43481,0.00218
			c0.13843-0.09131,0.23234-0.27155,0.30155-0.43243C48.88145,21.25399,48.74489,21.14253,48.65352,21.02925z M51.00321,21.17383
			c-0.09718-0.04031-0.22358-0.13387-0.35238-0.13731c-0.24114-0.00645-0.57899-0.09166-0.63614,0.25313
			c-0.04425,0.26699,0.19857,0.40116,0.45195,0.43103C50.72041,21.7506,50.97886,21.51859,51.00321,21.17383z M52.144,17.74921
			c-0.01582,0.01316-0.04631,0.02835-0.04482,0.03913c0.00533,0.03862,0.0215,0.07574,0.03356,0.11343
			c0.01591-0.01336,0.04656-0.02871,0.04507-0.03972C52.17261,17.82361,52.15631,17.78666,52.144,17.74921z M52.14433,16.86856
			l-0.03303,0.05069l0.05347,0.00756L52.14433,16.86856z M52.07832,18.56256l0.00438-0.04434l-0.04711,0.0181L52.07832,18.56256z
			 M52.14318,19.43349l-0.03131,0.04674l0.05029,0.00749L52.14318,19.43349z M51.97175,20.1645l0.02438,0.0501l0.02503-0.04937
			L51.97175,20.1645z"/>
		<path d="M46.08731,56.8218c-0.14785-1.71576,1.37769-3.6833,3.4073-3.62202c2.377,0.07177,3.59202,1.55587,3.66962,3.80005
			c0.06696,1.9364-1.76537,3.41254-3.65608,3.43352C47.62287,60.45427,46.085,58.81277,46.08731,56.8218z M46.23926,56.79239
			c-0.00322,1.806,1.5466,3.5191,3.23969,3.4809c1.75462-0.03959,3.43027-1.39942,3.54238-3.24762
			c0.11434-1.88507-1.66195-3.72518-3.4968-3.68277C47.62868,53.38672,46.17632,55.18061,46.23926,56.79239z"/>
		<path d="M50.07474,18.28663c-0.00793-0.39825,0.09645-0.51657,0.46815-0.53065c0.63194-0.02394,0.81521,0.0645,0.80848,0.39014
			c-0.00898,0.43459-0.2424,0.57793-0.89063,0.58952C50.12675,18.74161,50.07654,18.54491,50.07474,18.28663z M50.45968,18.55113
			c0.22892-0.07058,0.41077-0.11046,0.57531-0.18736c0.04863-0.02273,0.04843-0.14992,0.07061-0.22924
			c-0.23711-0.05988-0.47257-0.13785-0.71313-0.15973c-0.03523-0.00321-0.12174,0.25892-0.12998,0.40143
			C50.25912,18.43471,50.40034,18.50155,50.45968,18.55113z"/>
		<path d="M48.35645,17.92467c0.30436-0.05087,0.43309,0.08891,0.44047,0.38575c0.00956,0.38406-0.09601,0.49996-0.46423,0.51063
			c-0.29389,0.00852-0.56749,0.03961-0.54167-0.40543C47.81512,18.00039,47.85885,17.93976,48.35645,17.92467z M48.46585,18.02257
			c-0.19273,0.15252-0.32853,0.25998-0.46432,0.36744c0.08075,0.06715,0.17641,0.20153,0.23917,0.18761
			c0.13564-0.03009,0.26766-0.12247,0.37038-0.22136C48.63541,18.33284,48.53825,18.1832,48.46585,18.02257z"/>
		<path d="M48.94159,19.97347c-0.00964,0.40884-0.11329,0.49437-0.59274,0.4893c-0.27075-0.00286-0.54803-0.00382-0.53687-0.38815
			c0.00895-0.30816,0.36199-0.56112,0.78009-0.57088C48.8737,19.49717,48.95039,19.60023,48.94159,19.97347z M48.8274,19.98301
			c-0.06257-0.1037-0.12955-0.24318-0.14589-0.23748c-0.22803,0.07955-0.45105,0.17501-0.66829,0.28097
			c-0.01735,0.00846,0.00546,0.17446,0.02913,0.17974c0.17233,0.03845,0.3559,0.09143,0.52302,0.06326
			C48.66079,20.25341,48.73199,20.09356,48.8274,19.98301z"/>
		<path d="M50.62631,20.32023c-0.44072-0.00393-0.55574-0.09386-0.54678-0.45341c0.00609-0.24401,0.03182-0.48323,0.37192-0.48295
			c0.52595,0.00042,0.7711,0.16309,0.76108,0.51675C51.203,20.23654,51.08043,20.32428,50.62631,20.32023z M51.06824,20.01173
			c0.00369-0.05733,0.00738-0.11466,0.01107-0.17199c-0.12078-0.07326-0.24537-0.21092-0.36139-0.20403
			c-0.15666,0.0093-0.39958,0.09637-0.44021,0.20945c-0.08384,0.23334,0.12555,0.33146,0.3321,0.31188
			C50.7658,20.14226,50.91565,20.06254,51.06824,20.01173z"/>
		<path d="M48.65352,21.02925c0.09137,0.11328,0.22793,0.22474,0.20879,0.26922c-0.06921,0.16088-0.16312,0.34112-0.30155,0.43243
			c-0.10463,0.06902-0.30803,0.05232-0.43481-0.00218c-0.06744-0.02899-0.12505-0.29068-0.08454-0.32451
			C48.21325,21.26071,48.42352,21.16322,48.65352,21.02925z M48.34454,21.57752c0.05242-0.03153,0.1101-0.06624,0.16779-0.10094
			c-0.03722-0.03151-0.0855-0.09608-0.10949-0.08805c-0.06115,0.02047-0.11146,0.07335-0.1661,0.11326
			C48.26841,21.52404,48.30008,21.54629,48.34454,21.57752z"/>
		<path d="M51.00321,21.17383c-0.02435,0.34476-0.2828,0.57677-0.53656,0.54685c-0.25339-0.02987-0.4962-0.16404-0.45195-0.43103
			c0.05714-0.3448,0.395-0.25958,0.63614-0.25313C50.77963,21.03996,50.90603,21.13352,51.00321,21.17383z M50.51551,21.13958
			c-0.09209,0.08258-0.15335,0.13752-0.21461,0.19246c0.07583,0.06729,0.14328,0.15706,0.23188,0.19006
			c0.03236,0.01205,0.15251-0.10541,0.16233-0.17386C50.70248,21.29688,50.59743,21.2294,50.51551,21.13958z"/>
		<path d="M52.14411,17.74918c0.0122,0.03748,0.0285,0.07443,0.0337,0.11288c0.00149,0.01101-0.02916,0.02636-0.04507,0.03972
			c-0.01207-0.03769-0.02823-0.07481-0.03356-0.11343C52.09768,17.77757,52.12817,17.76238,52.14411,17.74918z"/>
		<polygon points="52.14433,16.86856 52.16477,16.92681 52.1113,16.91925 		"/>
		<polygon points="52.07832,18.56256 52.03559,18.53631 52.0827,18.51821 		"/>
		<polygon points="52.14318,19.43349 52.16216,19.48771 52.11187,19.48023 		"/>
		<polygon points="51.97175,20.1645 52.02116,20.16523 51.99613,20.2146 		"/>
		<path class="st0" d="M50.45968,18.55113c-0.05934-0.04958-0.20056-0.11642-0.19718-0.1749
			c0.00824-0.14251,0.09475-0.40464,0.12998-0.40143c0.24056,0.02188,0.47602,0.09985,0.71313,0.15973
			c-0.02218,0.07932-0.02198,0.20651-0.07061,0.22924C50.87045,18.44066,50.68859,18.48055,50.45968,18.55113z"/>
		<path class="st0" d="M48.46585,18.02257c0.0724,0.16064,0.16956,0.31027,0.14523,0.3337
			c-0.10271,0.09888-0.23473,0.19127-0.37038,0.22136c-0.06276,0.01392-0.15842-0.12046-0.23917-0.18761
			C48.13732,18.28255,48.27311,18.17509,48.46585,18.02257z"/>
		<path class="st0" d="M48.8274,19.98301c-0.09541,0.11054-0.16661,0.2704-0.26203,0.28649
			c-0.16712,0.02817-0.35069-0.02481-0.52302-0.06326c-0.02367-0.00528-0.04647-0.17128-0.02913-0.17974
			c0.21724-0.10596,0.44026-0.20142,0.66829-0.28097C48.69785,19.73983,48.76483,19.87931,48.8274,19.98301z"/>
		<path class="st0" d="M51.06824,20.01173c-0.15259,0.05082-0.30243,0.13053-0.45843,0.14531
			c-0.20654,0.01958-0.41594-0.07854-0.3321-0.31188c0.04063-0.11308,0.28355-0.20015,0.44021-0.20945
			c0.11602-0.00689,0.24061,0.13077,0.36139,0.20403C51.07562,19.89707,51.07193,19.9544,51.06824,20.01173z"/>
		<path class="st0" d="M48.34454,21.57752c-0.04446-0.03123-0.07613-0.05348-0.1078-0.07573
			c0.05465-0.03991,0.10495-0.09279,0.1661-0.11326c0.02398-0.00803,0.07227,0.05654,0.10949,0.08805
			C48.45464,21.51128,48.39696,21.54599,48.34454,21.57752z"/>
		<path class="st0" d="M50.51551,21.13958c0.08192,0.08982,0.18697,0.1573,0.1796,0.20865
			c-0.00982,0.06846-0.12996,0.18591-0.16233,0.17386c-0.0886-0.033-0.15606-0.12276-0.23188-0.19006
			C50.36216,21.2771,50.42342,21.22216,50.51551,21.13958z"/>
	</g>
</g>
<g id="Layer_3">
</g>
</svg>
