<svg width="24" height="24" viewBox="0 0 24 24" fill="none" xmlns="http://www.w3.org/2000/svg">
<g clip-path="url(#clip0)">
<path d="M22.18 3.35C24.61 5.82 24.61 9.84 22.18 12.31L12 22.5L1.82 12.31C0.61 11.07 0 9.45 0 7.83C0 6.21 0.61 4.59 1.82 3.35C4.26 0.89 8.22 0.89 10.65 3.35L12 4.72L13.34 3.35C14.56 2.12 16.16 1.5 17.76 1.5C19.36 1.5 20.96 2.12 22.18 3.35Z" fill="#FF5246"/>
<path d="M16.24 12.88C16.24 12.9 16.25 12.92 16.25 12.94C16.25 15.25 14.35 17.13 12 17.13C9.65 17.13 7.75 15.26 7.75 12.94C7.75 12.92 7.76 12.9 7.76 12.88C9.02 13.55 10.47 13.93 12 13.93C13.53 13.93 14.98 13.54 16.24 12.88ZM7 7.13C5.96 7.13 5.12 7.97 5.12 9.01C5.12 10.05 5.96 10.88 7 10.88C8.04 10.88 8.87 10.04 8.87 9C8.87 7.96 8.04 7.13 7 7.13ZM17 7.13C15.96 7.13 15.12 7.97 15.12 9.01C15.12 10.05 15.96 10.88 17 10.88C18.04 10.88 18.88 10.04 18.88 9C18.88 7.96 18.04 7.13 17 7.13Z" fill="#720906"/>
</g>
<defs>
<clipPath id="clip0">
<rect width="24" height="21" fill="white" transform="translate(0 1.5)"/>
</clipPath>
</defs>
</svg>
