<svg width="24" height="24" viewBox="0 0 24 24" fill="none" xmlns="http://www.w3.org/2000/svg">
<path d="M15 23H9C4.58 23 1 19.42 1 15V9C1 4.58 4.58 1 9 1H15C19.42 1 23 4.58 23 9V15C23 19.42 19.42 23 15 23Z" fill="#FFAD65"/>
<path d="M9.88 8C9.88 9.04 9.04 9.88 8 9.88C6.96 9.88 6.12 9.04 6.12 8C6.12 6.96 6.96 6.12 8 6.12C9.04 6.12 9.88 6.96 9.88 8ZM16 6.12C14.96 6.12 14.12 6.96 14.12 8C14.12 9.04 14.96 9.88 16 9.88C17.04 9.88 17.88 9.04 17.88 8C17.88 6.96 17.04 6.12 16 6.12ZM12 11.5C9.93 11.5 8.25 13.4 8.25 15.75C8.25 18.1 9.93 20 12 20C14.07 20 15.75 18.1 15.75 15.75C15.75 13.4 14.07 11.5 12 11.5Z" fill="#60361A"/>
</svg>
