<svg width="24" height="24" viewBox="0 0 24 24" fill="none" xmlns="http://www.w3.org/2000/svg">
<g clip-path="url(#clip0)">
<path d="M8 21.5H16V21.59C16 22.92 14.92 24 13.59 24H10.41C9.08 24 8 22.92 8 21.59V21.5ZM10.89 0.0600008C6.42 0.550001 2.8 4.18 2.3 8.65C1.87 12.57 4.05 16.3 6.8 18C7.64 18.52 8 19.14 8 20V20.5H16V20C16 19.14 16.4 18.5 17.2 18C19.95 16.29 21.75 13.22 21.75 9.75C21.75 4 16.77 -0.589999 10.89 0.0600008Z" fill="#FFD348"/>
<path d="M10.38 6.25C10.38 7.29 9.54 8.12 8.5 8.12C7.46 8.12 6.63 7.29 6.63 6.25C6.63 5.21 7.47001 4.37 8.51 4.37C9.55 4.37 10.38 5.21 10.38 6.25ZM15.75 4.37C14.71 4.37 13.87 5.21 13.87 6.25C13.87 7.29 14.71 8.12 15.75 8.12C16.79 8.12 17.63 7.28 17.63 6.25C17.63 5.22 16.79 4.37 15.75 4.37ZM7 12.05C7 14.78 9.24 17 12 17C14.76 17 17 14.78 17 12.05C17 9.32 7 9.32 7 12.05Z" fill="#6A3909"/>
</g>
<defs>
<clipPath id="clip0">
<rect width="19.5" height="24" fill="white" transform="translate(2.25)"/>
</clipPath>
</defs>
</svg>
