<svg width="22" height="22" viewBox="0 0 22 22" fill="none" xmlns="http://www.w3.org/2000/svg">
<path d="M21.1837 10.8358L11.5298 1.18895C11.4602 1.1193 11.3777 1.06404 11.2868 1.02634C11.1959 0.988644 11.0985 0.969238 11.0001 0.969238C10.9017 0.969238 10.8042 0.988644 10.7134 1.02634C10.6225 1.06404 10.5399 1.1193 10.4704 1.18895L0.816479 10.8358C0.535229 11.1171 0.375854 11.4991 0.375854 11.8975C0.375854 12.7249 1.04851 13.3975 1.87585 13.3975H2.89304V20.2811C2.89304 20.696 3.2282 21.0311 3.64304 21.0311H9.50007V15.7811H12.1251V21.0311H18.3571C18.7719 21.0311 19.1071 20.696 19.1071 20.2811V13.3975H20.1243C20.5227 13.3975 20.9048 13.2405 21.186 12.9569C21.7696 12.371 21.7696 11.4218 21.1837 10.8358Z" fill="#39B6FA"/>
</svg>
