<svg width="24" height="24" viewBox="0 0 24 24" fill="none" xmlns="http://www.w3.org/2000/svg">
<path d="M9.5 10.5C9.63261 10.5 9.75979 10.5527 9.85355 10.6464C9.94732 10.7402 10 10.8674 10 11V17C10 17.1326 9.94732 17.2598 9.85355 17.3536C9.75979 17.4473 9.63261 17.5 9.5 17.5C9.36739 17.5 9.24021 17.4473 9.14645 17.3536C9.05268 17.2598 9 17.1326 9 17V11C9 10.8674 9.05268 10.7402 9.14645 10.6464C9.24021 10.5527 9.36739 10.5 9.5 10.5V10.5ZM12 10.5C12.1326 10.5 12.2598 10.5527 12.3536 10.6464C12.4473 10.7402 12.5 10.8674 12.5 11V17C12.5 17.1326 12.4473 17.2598 12.3536 17.3536C12.2598 17.4473 12.1326 17.5 12 17.5C11.8674 17.5 11.7402 17.4473 11.6464 17.3536C11.5527 17.2598 11.5 17.1326 11.5 17V11C11.5 10.8674 11.5527 10.7402 11.6464 10.6464C11.7402 10.5527 11.8674 10.5 12 10.5V10.5ZM15 11C15 10.8674 14.9473 10.7402 14.8536 10.6464C14.7598 10.5527 14.6326 10.5 14.5 10.5C14.3674 10.5 14.2402 10.5527 14.1464 10.6464C14.0527 10.7402 14 10.8674 14 11V17C14 17.1326 14.0527 17.2598 14.1464 17.3536C14.2402 17.4473 14.3674 17.5 14.5 17.5C14.6326 17.5 14.7598 17.4473 14.8536 17.3536C14.9473 17.2598 15 17.1326 15 17V11Z" fill="black"/>
<path fill-rule="evenodd" clip-rule="evenodd" d="M18.5 8C18.5 8.26522 18.3946 8.51957 18.2071 8.70711C18.0196 8.89464 17.7652 9 17.5 9H17V18C17 18.5304 16.7893 19.0391 16.4142 19.4142C16.0391 19.7893 15.5304 20 15 20H9C8.46957 20 7.96086 19.7893 7.58579 19.4142C7.21071 19.0391 7 18.5304 7 18V9H6.5C6.23478 9 5.98043 8.89464 5.79289 8.70711C5.60536 8.51957 5.5 8.26522 5.5 8V7C5.5 6.73478 5.60536 6.48043 5.79289 6.29289C5.98043 6.10536 6.23478 6 6.5 6H10C10 5.73478 10.1054 5.48043 10.2929 5.29289C10.4804 5.10536 10.7348 5 11 5H13C13.2652 5 13.5196 5.10536 13.7071 5.29289C13.8946 5.48043 14 5.73478 14 6H17.5C17.7652 6 18.0196 6.10536 18.2071 6.29289C18.3946 6.48043 18.5 6.73478 18.5 7V8ZM8.118 9L8 9.059V18C8 18.2652 8.10536 18.5196 8.29289 18.7071C8.48043 18.8946 8.73478 19 9 19H15C15.2652 19 15.5196 18.8946 15.7071 18.7071C15.8946 18.5196 16 18.2652 16 18V9.059L15.882 9H8.118ZM6.5 8V7H17.5V8H6.5Z" fill="black"/>
</svg>
