<?xml version="1.0" encoding="iso-8859-1"?>
<!-- Generator: Adobe Illustrator 19.0.0, SVG Export Plug-In . SVG Version: 6.00 Build 0)  -->
<svg version="1.1" id="Layer_1" xmlns="http://www.w3.org/2000/svg" xmlns:xlink="http://www.w3.org/1999/xlink" x="0px" y="0px"
	 viewBox="0 0 512 512" style="enable-background:new 0 0 512 512;" xml:space="preserve">
<g>
	<g>
		<path d="M387.076,175.279L265.94,15.996c-2.363-3.106-6.039-4.929-9.94-4.929s-7.578,1.823-9.94,4.929L124.924,175.28
			c-3.072,4.04-3.394,9.537-0.813,13.908c2.58,4.371,7.556,6.746,12.57,6.005l70.616-10.384v172.859
			c0,6.897,5.592,12.143,12.488,12.143h74.927c6.896,0,12.488-5.246,12.488-12.143V184.873l68.065,10.312
			c5.018,0.759,10.016-1.601,12.611-5.975C390.47,184.837,390.154,179.326,387.076,175.279z M296.583,158.003
			c-3.598-0.547-7.254,0.506-10.013,2.878c-2.76,2.371-4.346,5.829-4.346,9.468v174.485h-49.951V170.351
			c0-3.629-1.58-7.078-4.326-9.451c-2.745-2.371-6.383-3.43-9.979-2.905l-54.632,8.033L256,44.184l92.547,121.692L296.583,158.003z"
			/>
	</g>
</g>
<g>
	<g>
		<path d="M474.537,113.811h-47.454c-6.896,0-12.488,5.935-12.488,12.832v49.951c0,6.897,5.592,12.143,12.488,12.143h9.99v237.268
			H74.927V188.738h9.99c6.896,0,12.488-5.246,12.488-12.143v-49.951c0-6.897-5.592-12.832-12.488-12.832H37.463
			C16.806,113.811,0,130.962,0,151.619v312.195c0,20.657,16.806,37.119,37.463,37.119h437.073c20.657,0,37.463-16.461,37.463-37.119
			V151.619C512,130.962,495.194,113.811,474.537,113.811z M487.024,463.815c0,6.886-5.602,12.143-12.488,12.143H37.463
			c-6.886,0-12.488-5.257-12.488-12.143V151.619c0-6.886,5.602-12.832,12.488-12.832h34.966v24.976h-9.99
			c-6.896,0-12.488,5.935-12.488,12.832v262.244c0,6.897,5.592,12.143,12.488,12.143h387.122c6.896,0,12.488-5.246,12.488-12.143
			V176.595c0-6.897-5.592-12.832-12.488-12.832h-9.99v-24.976h34.966c6.886,0,12.488,5.947,12.488,12.832V463.815z"/>
	</g>
</g>
<g>
</g>
<g>
</g>
<g>
</g>
<g>
</g>
<g>
</g>
<g>
</g>
<g>
</g>
<g>
</g>
<g>
</g>
<g>
</g>
<g>
</g>
<g>
</g>
<g>
</g>
<g>
</g>
<g>
</g>
</svg>
